<svg width="127" height="14" viewBox="0 0 127 14" fill="none" xmlns="http://www.w3.org/2000/svg">
<path d="M2.24316 0.646973L5.49707 8.76807L8.75098 0.646973H10.4531V10.6001H9.14062V6.72412L9.26367 2.54053L5.99609 10.6001H4.99121L1.73047 2.56104L1.86035 6.72412V10.6001H0.547852V0.646973H2.24316ZM17.1387 10.6001C17.0658 10.4543 17.0065 10.1945 16.9609 9.8208C16.373 10.4315 15.6712 10.7368 14.8555 10.7368C14.1263 10.7368 13.527 10.5317 13.0576 10.1216C12.5928 9.70687 12.3604 9.18278 12.3604 8.54932C12.3604 7.77913 12.652 7.18213 13.2354 6.7583C13.8232 6.32992 14.6481 6.11572 15.71 6.11572H16.9404V5.53467C16.9404 5.09261 16.8083 4.7417 16.5439 4.48193C16.2796 4.21761 15.89 4.08545 15.375 4.08545C14.9238 4.08545 14.5456 4.19938 14.2402 4.42725C13.9349 4.65511 13.7822 4.93083 13.7822 5.25439H12.5107C12.5107 4.88525 12.6406 4.52979 12.9004 4.18799C13.1647 3.84163 13.5202 3.5682 13.9668 3.36768C14.418 3.16715 14.9124 3.06689 15.4502 3.06689C16.3024 3.06689 16.9701 3.28109 17.4531 3.70947C17.9362 4.1333 18.1868 4.71891 18.2051 5.46631V8.87061C18.2051 9.54964 18.2917 10.0897 18.4648 10.4907V10.6001H17.1387ZM15.04 9.63623C15.4365 9.63623 15.8125 9.53369 16.168 9.32861C16.5234 9.12354 16.7809 8.85693 16.9404 8.52881V7.01123H15.9492C14.3997 7.01123 13.625 7.46468 13.625 8.37158C13.625 8.76807 13.7572 9.07796 14.0215 9.30127C14.2858 9.52458 14.6253 9.63623 15.04 9.63623ZM21.3838 3.20361L21.4248 4.1333C21.9899 3.42236 22.7282 3.06689 23.6396 3.06689C25.2028 3.06689 25.9912 3.94873 26.0049 5.7124V10.6001H24.7402V5.70557C24.7357 5.17236 24.6126 4.77816 24.3711 4.52295C24.1341 4.26774 23.7627 4.14014 23.2568 4.14014C22.8467 4.14014 22.4867 4.24951 22.1768 4.46826C21.8669 4.68701 21.6253 4.97412 21.4521 5.32959V10.6001H20.1875V3.20361H21.3838ZM32.4785 10.6001C32.4056 10.4543 32.3464 10.1945 32.3008 9.8208C31.7129 10.4315 31.0111 10.7368 30.1953 10.7368C29.4661 10.7368 28.8669 10.5317 28.3975 10.1216C27.9326 9.70687 27.7002 9.18278 27.7002 8.54932C27.7002 7.77913 27.9919 7.18213 28.5752 6.7583C29.1631 6.32992 29.988 6.11572 31.0498 6.11572H32.2803V5.53467C32.2803 5.09261 32.1481 4.7417 31.8838 4.48193C31.6195 4.21761 31.2298 4.08545 30.7148 4.08545C30.2637 4.08545 29.8854 4.19938 29.5801 4.42725C29.2747 4.65511 29.1221 4.93083 29.1221 5.25439H27.8506C27.8506 4.88525 27.9805 4.52979 28.2402 4.18799C28.5046 3.84163 28.86 3.5682 29.3066 3.36768C29.7578 3.16715 30.2523 3.06689 30.79 3.06689C31.6423 3.06689 32.3099 3.28109 32.793 3.70947C33.276 4.1333 33.5267 4.71891 33.5449 5.46631V8.87061C33.5449 9.54964 33.6315 10.0897 33.8047 10.4907V10.6001H32.4785ZM30.3799 9.63623C30.7764 9.63623 31.1523 9.53369 31.5078 9.32861C31.8633 9.12354 32.1208 8.85693 32.2803 8.52881V7.01123H31.2891C29.7396 7.01123 28.9648 7.46468 28.9648 8.37158C28.9648 8.76807 29.097 9.07796 29.3613 9.30127C29.6257 9.52458 29.9652 9.63623 30.3799 9.63623ZM35.2266 6.84033C35.2266 5.68734 35.4932 4.77132 36.0264 4.09229C36.5596 3.40869 37.266 3.06689 38.1455 3.06689C39.0479 3.06689 39.752 3.3859 40.2578 4.02393L40.3193 3.20361H41.4746V10.4224C41.4746 11.3794 41.1898 12.1336 40.6201 12.6851C40.055 13.2365 39.2939 13.5122 38.3369 13.5122C37.8037 13.5122 37.2819 13.3983 36.7715 13.1704C36.2611 12.9425 35.8714 12.6304 35.6025 12.2339L36.2588 11.4751C36.8011 12.145 37.4642 12.48 38.248 12.48C38.8633 12.48 39.3418 12.3068 39.6836 11.9604C40.0299 11.6141 40.2031 11.1265 40.2031 10.4976V9.86182C39.6973 10.4451 39.0068 10.7368 38.1318 10.7368C37.266 10.7368 36.5641 10.3882 36.0264 9.69092C35.4932 8.99365 35.2266 8.04346 35.2266 6.84033ZM36.498 6.98389C36.498 7.81787 36.6689 8.47412 37.0107 8.95264C37.3525 9.4266 37.8311 9.66357 38.4463 9.66357C39.2438 9.66357 39.8294 9.30127 40.2031 8.57666V5.19971C39.8158 4.49333 39.2347 4.14014 38.46 4.14014C37.8447 4.14014 37.3639 4.37939 37.0176 4.85791C36.6712 5.33643 36.498 6.04508 36.498 6.98389ZM47.9551 9.86865C47.4629 10.4474 46.7406 10.7368 45.7881 10.7368C44.9997 10.7368 44.3981 10.509 43.9834 10.0532C43.5732 9.59294 43.3659 8.9139 43.3613 8.01611V3.20361H44.626V7.98193C44.626 9.10303 45.0817 9.66357 45.9932 9.66357C46.9593 9.66357 47.6019 9.30355 47.9209 8.5835V3.20361H49.1855V10.6001H47.9824L47.9551 9.86865ZM55.6797 10.6001C55.6068 10.4543 55.5475 10.1945 55.502 9.8208C54.9141 10.4315 54.2122 10.7368 53.3965 10.7368C52.6673 10.7368 52.068 10.5317 51.5986 10.1216C51.1338 9.70687 50.9014 9.18278 50.9014 8.54932C50.9014 7.77913 51.193 7.18213 51.7764 6.7583C52.3643 6.32992 53.1891 6.11572 54.251 6.11572H55.4814V5.53467C55.4814 5.09261 55.3493 4.7417 55.085 4.48193C54.8206 4.21761 54.431 4.08545 53.916 4.08545C53.4648 4.08545 53.0866 4.19938 52.7812 4.42725C52.4759 4.65511 52.3232 4.93083 52.3232 5.25439H51.0518C51.0518 4.88525 51.1816 4.52979 51.4414 4.18799C51.7057 3.84163 52.0612 3.5682 52.5078 3.36768C52.959 3.16715 53.4535 3.06689 53.9912 3.06689C54.8434 3.06689 55.5111 3.28109 55.9941 3.70947C56.4772 4.1333 56.7279 4.71891 56.7461 5.46631V8.87061C56.7461 9.54964 56.8327 10.0897 57.0059 10.4907V10.6001H55.6797ZM53.5811 9.63623C53.9775 9.63623 54.3535 9.53369 54.709 9.32861C55.0645 9.12354 55.3219 8.85693 55.4814 8.52881V7.01123H54.4902C52.9408 7.01123 52.166 7.46468 52.166 8.37158C52.166 8.76807 52.2982 9.07796 52.5625 9.30127C52.8268 9.52458 53.1663 9.63623 53.5811 9.63623ZM58.6875 12.5825L57.9697 12.0903C58.3981 11.4933 58.6214 10.8781 58.6396 10.2446V9.10303H59.877V10.0942C59.877 10.5545 59.763 11.0148 59.5352 11.4751C59.3118 11.9354 59.0293 12.3045 58.6875 12.5825ZM72.7969 10.6001H71.4775L66.4668 2.93018V10.6001H65.1475V0.646973H66.4668L71.4912 8.35107V0.646973H72.7969V10.6001ZM76.3037 10.6001H75.0391V3.20361H76.3037V10.6001ZM74.9365 1.2417C74.9365 1.03662 74.998 0.863444 75.1211 0.722168C75.2487 0.580892 75.4355 0.510254 75.6816 0.510254C75.9277 0.510254 76.1146 0.580892 76.2422 0.722168C76.3698 0.863444 76.4336 1.03662 76.4336 1.2417C76.4336 1.44678 76.3698 1.61768 76.2422 1.75439C76.1146 1.89111 75.9277 1.95947 75.6816 1.95947C75.4355 1.95947 75.2487 1.89111 75.1211 1.75439C74.998 1.61768 74.9365 1.44678 74.9365 1.2417ZM81.3008 9.70459C81.752 9.70459 82.1462 9.56787 82.4834 9.29443C82.8206 9.021 83.0075 8.6792 83.0439 8.26904H84.2402C84.2174 8.69287 84.0716 9.09619 83.8027 9.479C83.5339 9.86182 83.1738 10.1672 82.7227 10.395C82.276 10.6229 81.8021 10.7368 81.3008 10.7368C80.2936 10.7368 79.4915 10.4019 78.8945 9.73193C78.3021 9.05745 78.0059 8.13688 78.0059 6.97021V6.7583C78.0059 6.03825 78.138 5.39795 78.4023 4.8374C78.6667 4.27686 79.0449 3.84163 79.5371 3.53174C80.0339 3.22184 80.6195 3.06689 81.2939 3.06689C82.1234 3.06689 82.8115 3.31527 83.3584 3.81201C83.9098 4.30876 84.2038 4.95361 84.2402 5.74658H83.0439C83.0075 5.26807 82.8252 4.87614 82.4971 4.5708C82.1735 4.2609 81.7725 4.10596 81.2939 4.10596C80.6514 4.10596 80.1523 4.33838 79.7969 4.80322C79.446 5.26351 79.2705 5.93115 79.2705 6.80615V7.04541C79.2705 7.89762 79.446 8.55387 79.7969 9.01416C80.1478 9.47445 80.6491 9.70459 81.3008 9.70459ZM90.2285 10.6001C90.1556 10.4543 90.0964 10.1945 90.0508 9.8208C89.4629 10.4315 88.7611 10.7368 87.9453 10.7368C87.2161 10.7368 86.6169 10.5317 86.1475 10.1216C85.6826 9.70687 85.4502 9.18278 85.4502 8.54932C85.4502 7.77913 85.7419 7.18213 86.3252 6.7583C86.9131 6.32992 87.738 6.11572 88.7998 6.11572H90.0303V5.53467C90.0303 5.09261 89.8981 4.7417 89.6338 4.48193C89.3695 4.21761 88.9798 4.08545 88.4648 4.08545C88.0137 4.08545 87.6354 4.19938 87.3301 4.42725C87.0247 4.65511 86.8721 4.93083 86.8721 5.25439H85.6006C85.6006 4.88525 85.7305 4.52979 85.9902 4.18799C86.2546 3.84163 86.61 3.5682 87.0566 3.36768C87.5078 3.16715 88.0023 3.06689 88.54 3.06689C89.3923 3.06689 90.0599 3.28109 90.543 3.70947C91.026 4.1333 91.2767 4.71891 91.2949 5.46631V8.87061C91.2949 9.54964 91.3815 10.0897 91.5547 10.4907V10.6001H90.2285ZM88.1299 9.63623C88.5264 9.63623 88.9023 9.53369 89.2578 9.32861C89.6133 9.12354 89.8708 8.85693 90.0303 8.52881V7.01123H89.0391C87.4896 7.01123 86.7148 7.46468 86.7148 8.37158C86.7148 8.76807 86.847 9.07796 87.1113 9.30127C87.3757 9.52458 87.7152 9.63623 88.1299 9.63623ZM96.8525 4.33838C96.6611 4.30648 96.4538 4.29053 96.2305 4.29053C95.401 4.29053 94.8382 4.64372 94.542 5.3501V10.6001H93.2773V3.20361H94.5078L94.5283 4.05811C94.943 3.3973 95.5309 3.06689 96.292 3.06689C96.5381 3.06689 96.7249 3.0988 96.8525 3.1626V4.33838ZM102.314 10.6001C102.242 10.4543 102.182 10.1945 102.137 9.8208C101.549 10.4315 100.847 10.7368 100.031 10.7368C99.3021 10.7368 98.7028 10.5317 98.2334 10.1216C97.7686 9.70687 97.5361 9.18278 97.5361 8.54932C97.5361 7.77913 97.8278 7.18213 98.4111 6.7583C98.999 6.32992 99.8239 6.11572 100.886 6.11572H102.116V5.53467C102.116 5.09261 101.984 4.7417 101.72 4.48193C101.455 4.21761 101.066 4.08545 100.551 4.08545C100.1 4.08545 99.7214 4.19938 99.416 4.42725C99.1107 4.65511 98.958 4.93083 98.958 5.25439H97.6865C97.6865 4.88525 97.8164 4.52979 98.0762 4.18799C98.3405 3.84163 98.696 3.5682 99.1426 3.36768C99.5938 3.16715 100.088 3.06689 100.626 3.06689C101.478 3.06689 102.146 3.28109 102.629 3.70947C103.112 4.1333 103.363 4.71891 103.381 5.46631V8.87061C103.381 9.54964 103.467 10.0897 103.641 10.4907V10.6001H102.314ZM100.216 9.63623C100.612 9.63623 100.988 9.53369 101.344 9.32861C101.699 9.12354 101.957 8.85693 102.116 8.52881V7.01123H101.125C99.5755 7.01123 98.8008 7.46468 98.8008 8.37158C98.8008 8.76807 98.9329 9.07796 99.1973 9.30127C99.4616 9.52458 99.8011 9.63623 100.216 9.63623ZM105.062 6.84033C105.062 5.68734 105.329 4.77132 105.862 4.09229C106.396 3.40869 107.102 3.06689 107.981 3.06689C108.884 3.06689 109.588 3.3859 110.094 4.02393L110.155 3.20361H111.311V10.4224C111.311 11.3794 111.026 12.1336 110.456 12.6851C109.891 13.2365 109.13 13.5122 108.173 13.5122C107.64 13.5122 107.118 13.3983 106.607 13.1704C106.097 12.9425 105.707 12.6304 105.438 12.2339L106.095 11.4751C106.637 12.145 107.3 12.48 108.084 12.48C108.699 12.48 109.178 12.3068 109.52 11.9604C109.866 11.6141 110.039 11.1265 110.039 10.4976V9.86182C109.533 10.4451 108.843 10.7368 107.968 10.7368C107.102 10.7368 106.4 10.3882 105.862 9.69092C105.329 8.99365 105.062 8.04346 105.062 6.84033ZM106.334 6.98389C106.334 7.81787 106.505 8.47412 106.847 8.95264C107.188 9.4266 107.667 9.66357 108.282 9.66357C109.08 9.66357 109.665 9.30127 110.039 8.57666V5.19971C109.652 4.49333 109.071 4.14014 108.296 4.14014C107.681 4.14014 107.2 4.37939 106.854 4.85791C106.507 5.33643 106.334 6.04508 106.334 6.98389ZM117.791 9.86865C117.299 10.4474 116.576 10.7368 115.624 10.7368C114.836 10.7368 114.234 10.509 113.819 10.0532C113.409 9.59294 113.202 8.9139 113.197 8.01611V3.20361H114.462V7.98193C114.462 9.10303 114.918 9.66357 115.829 9.66357C116.795 9.66357 117.438 9.30355 117.757 8.5835V3.20361H119.021V10.6001H117.818L117.791 9.86865ZM125.516 10.6001C125.443 10.4543 125.383 10.1945 125.338 9.8208C124.75 10.4315 124.048 10.7368 123.232 10.7368C122.503 10.7368 121.904 10.5317 121.435 10.1216C120.97 9.70687 120.737 9.18278 120.737 8.54932C120.737 7.77913 121.029 7.18213 121.612 6.7583C122.2 6.32992 123.025 6.11572 124.087 6.11572H125.317V5.53467C125.317 5.09261 125.185 4.7417 124.921 4.48193C124.657 4.21761 124.267 4.08545 123.752 4.08545C123.301 4.08545 122.923 4.19938 122.617 4.42725C122.312 4.65511 122.159 4.93083 122.159 5.25439H120.888C120.888 4.88525 121.018 4.52979 121.277 4.18799C121.542 3.84163 121.897 3.5682 122.344 3.36768C122.795 3.16715 123.289 3.06689 123.827 3.06689C124.679 3.06689 125.347 3.28109 125.83 3.70947C126.313 4.1333 126.564 4.71891 126.582 5.46631V8.87061C126.582 9.54964 126.669 10.0897 126.842 10.4907V10.6001H125.516ZM123.417 9.63623C123.813 9.63623 124.189 9.53369 124.545 9.32861C124.9 9.12354 125.158 8.85693 125.317 8.52881V7.01123H124.326C122.777 7.01123 122.002 7.46468 122.002 8.37158C122.002 8.76807 122.134 9.07796 122.398 9.30127C122.663 9.52458 123.002 9.63623 123.417 9.63623Z" fill="#A1A099"/>
</svg>
