<svg width="219" height="30" viewBox="0 0 219 30" fill="none" xmlns="http://www.w3.org/2000/svg">
<path d="M34.8506 10.0469L38.1045 18.168L41.3584 10.0469H43.0605V20H41.748V16.124L41.8711 11.9404L38.6035 20H37.5986L34.3379 11.9609L34.4678 16.124V20H33.1553V10.0469H34.8506ZM49.7461 20C49.6732 19.8542 49.6139 19.5944 49.5684 19.2207C48.9805 19.8314 48.2786 20.1367 47.4629 20.1367C46.7337 20.1367 46.1344 19.9316 45.665 19.5215C45.2002 19.1068 44.9678 18.5827 44.9678 17.9492C44.9678 17.179 45.2594 16.582 45.8428 16.1582C46.4307 15.7298 47.2555 15.5156 48.3174 15.5156H49.5479V14.9346C49.5479 14.4925 49.4157 14.1416 49.1514 13.8818C48.887 13.6175 48.4974 13.4854 47.9824 13.4854C47.5312 13.4854 47.153 13.5993 46.8477 13.8271C46.5423 14.055 46.3896 14.3307 46.3896 14.6543H45.1182C45.1182 14.2852 45.248 13.9297 45.5078 13.5879C45.7721 13.2415 46.1276 12.9681 46.5742 12.7676C47.0254 12.5671 47.5199 12.4668 48.0576 12.4668C48.9098 12.4668 49.5775 12.681 50.0605 13.1094C50.5436 13.5332 50.7943 14.1188 50.8125 14.8662V18.2705C50.8125 18.9495 50.8991 19.4896 51.0723 19.8906V20H49.7461ZM47.6475 19.0361C48.0439 19.0361 48.4199 18.9336 48.7754 18.7285C49.1309 18.5234 49.3883 18.2568 49.5479 17.9287V16.4111H48.5566C47.0072 16.4111 46.2324 16.8646 46.2324 17.7715C46.2324 18.168 46.3646 18.4779 46.6289 18.7012C46.8932 18.9245 47.2327 19.0361 47.6475 19.0361ZM53.9912 12.6035L54.0322 13.5332C54.5973 12.8223 55.3356 12.4668 56.2471 12.4668C57.8102 12.4668 58.5986 13.3486 58.6123 15.1123V20H57.3477V15.1055C57.3431 14.5723 57.2201 14.1781 56.9785 13.9229C56.7415 13.6676 56.3701 13.54 55.8643 13.54C55.4541 13.54 55.0941 13.6494 54.7842 13.8682C54.4743 14.0869 54.2327 14.374 54.0596 14.7295V20H52.7949V12.6035H53.9912ZM65.0859 20C65.013 19.8542 64.9538 19.5944 64.9082 19.2207C64.3203 19.8314 63.6185 20.1367 62.8027 20.1367C62.0736 20.1367 61.4743 19.9316 61.0049 19.5215C60.54 19.1068 60.3076 18.5827 60.3076 17.9492C60.3076 17.179 60.5993 16.582 61.1826 16.1582C61.7705 15.7298 62.5954 15.5156 63.6572 15.5156H64.8877V14.9346C64.8877 14.4925 64.7555 14.1416 64.4912 13.8818C64.2269 13.6175 63.8372 13.4854 63.3223 13.4854C62.8711 13.4854 62.4928 13.5993 62.1875 13.8271C61.8822 14.055 61.7295 14.3307 61.7295 14.6543H60.458C60.458 14.2852 60.5879 13.9297 60.8477 13.5879C61.112 13.2415 61.4674 12.9681 61.9141 12.7676C62.3652 12.5671 62.8597 12.4668 63.3975 12.4668C64.2497 12.4668 64.9173 12.681 65.4004 13.1094C65.8835 13.5332 66.1341 14.1188 66.1523 14.8662V18.2705C66.1523 18.9495 66.2389 19.4896 66.4121 19.8906V20H65.0859ZM62.9873 19.0361C63.3838 19.0361 63.7598 18.9336 64.1152 18.7285C64.4707 18.5234 64.7282 18.2568 64.8877 17.9287V16.4111H63.8965C62.347 16.4111 61.5723 16.8646 61.5723 17.7715C61.5723 18.168 61.7044 18.4779 61.9688 18.7012C62.2331 18.9245 62.5726 19.0361 62.9873 19.0361ZM67.834 16.2402C67.834 15.0872 68.1006 14.1712 68.6338 13.4922C69.167 12.8086 69.8734 12.4668 70.7529 12.4668C71.6553 12.4668 72.3594 12.7858 72.8652 13.4238L72.9268 12.6035H74.082V19.8223C74.082 20.7793 73.7972 21.5335 73.2275 22.085C72.6624 22.6364 71.9014 22.9121 70.9443 22.9121C70.4111 22.9121 69.8893 22.7982 69.3789 22.5703C68.8685 22.3424 68.4788 22.0303 68.21 21.6338L68.8662 20.875C69.4085 21.5449 70.0716 21.8799 70.8555 21.8799C71.4707 21.8799 71.9492 21.7067 72.291 21.3604C72.6374 21.014 72.8105 20.5264 72.8105 19.8975V19.2617C72.3047 19.8451 71.6143 20.1367 70.7393 20.1367C69.8734 20.1367 69.1715 19.7881 68.6338 19.0908C68.1006 18.3936 67.834 17.4434 67.834 16.2402ZM69.1055 16.3838C69.1055 17.2178 69.2764 17.874 69.6182 18.3525C69.96 18.8265 70.4385 19.0635 71.0537 19.0635C71.8512 19.0635 72.4368 18.7012 72.8105 17.9766V14.5996C72.4232 13.8932 71.8421 13.54 71.0674 13.54C70.4521 13.54 69.9714 13.7793 69.625 14.2578C69.2786 14.7363 69.1055 15.445 69.1055 16.3838ZM80.5625 19.2686C80.0703 19.8473 79.348 20.1367 78.3955 20.1367C77.6071 20.1367 77.0055 19.9089 76.5908 19.4531C76.1807 18.9928 75.9733 18.3138 75.9688 17.416V12.6035H77.2334V17.3818C77.2334 18.5029 77.6891 19.0635 78.6006 19.0635C79.5667 19.0635 80.2093 18.7035 80.5283 17.9834V12.6035H81.793V20H80.5898L80.5625 19.2686ZM88.2871 20C88.2142 19.8542 88.1549 19.5944 88.1094 19.2207C87.5215 19.8314 86.8197 20.1367 86.0039 20.1367C85.2747 20.1367 84.6755 19.9316 84.2061 19.5215C83.7412 19.1068 83.5088 18.5827 83.5088 17.9492C83.5088 17.179 83.8005 16.582 84.3838 16.1582C84.9717 15.7298 85.7965 15.5156 86.8584 15.5156H88.0889V14.9346C88.0889 14.4925 87.9567 14.1416 87.6924 13.8818C87.4281 13.6175 87.0384 13.4854 86.5234 13.4854C86.0723 13.4854 85.694 13.5993 85.3887 13.8271C85.0833 14.055 84.9307 14.3307 84.9307 14.6543H83.6592C83.6592 14.2852 83.7891 13.9297 84.0488 13.5879C84.3132 13.2415 84.6686 12.9681 85.1152 12.7676C85.5664 12.5671 86.0609 12.4668 86.5986 12.4668C87.4508 12.4668 88.1185 12.681 88.6016 13.1094C89.0846 13.5332 89.3353 14.1188 89.3535 14.8662V18.2705C89.3535 18.9495 89.4401 19.4896 89.6133 19.8906V20H88.2871ZM86.1885 19.0361C86.585 19.0361 86.9609 18.9336 87.3164 18.7285C87.6719 18.5234 87.9294 18.2568 88.0889 17.9287V16.4111H87.0977C85.5482 16.4111 84.7734 16.8646 84.7734 17.7715C84.7734 18.168 84.9056 18.4779 85.1699 18.7012C85.4342 18.9245 85.7738 19.0361 86.1885 19.0361ZM91.2949 21.9824L90.5771 21.4902C91.0055 20.8932 91.2288 20.278 91.2471 19.6445V18.5029H92.4844V19.4941C92.4844 19.9544 92.3704 20.4147 92.1426 20.875C91.9193 21.3353 91.6367 21.7044 91.2949 21.9824ZM105.404 20H104.085L99.0742 12.3301V20H97.7549V10.0469H99.0742L104.099 17.751V10.0469H105.404V20ZM108.911 20H107.646V12.6035H108.911V20ZM107.544 10.6416C107.544 10.4365 107.605 10.2633 107.729 10.1221C107.856 9.98079 108.043 9.91016 108.289 9.91016C108.535 9.91016 108.722 9.98079 108.85 10.1221C108.977 10.2633 109.041 10.4365 109.041 10.6416C109.041 10.8467 108.977 11.0176 108.85 11.1543C108.722 11.291 108.535 11.3594 108.289 11.3594C108.043 11.3594 107.856 11.291 107.729 11.1543C107.605 11.0176 107.544 10.8467 107.544 10.6416ZM113.908 19.1045C114.359 19.1045 114.754 18.9678 115.091 18.6943C115.428 18.4209 115.615 18.0791 115.651 17.6689H116.848C116.825 18.0928 116.679 18.4961 116.41 18.8789C116.141 19.2617 115.781 19.5671 115.33 19.7949C114.883 20.0228 114.41 20.1367 113.908 20.1367C112.901 20.1367 112.099 19.8018 111.502 19.1318C110.91 18.4574 110.613 17.5368 110.613 16.3701V16.1582C110.613 15.4382 110.745 14.7979 111.01 14.2373C111.274 13.6768 111.652 13.2415 112.145 12.9316C112.641 12.6217 113.227 12.4668 113.901 12.4668C114.731 12.4668 115.419 12.7152 115.966 13.2119C116.517 13.7087 116.811 14.3535 116.848 15.1465H115.651C115.615 14.668 115.433 14.276 115.104 13.9707C114.781 13.6608 114.38 13.5059 113.901 13.5059C113.259 13.5059 112.76 13.7383 112.404 14.2031C112.053 14.6634 111.878 15.3311 111.878 16.2061V16.4453C111.878 17.2975 112.053 17.9538 112.404 18.4141C112.755 18.8743 113.257 19.1045 113.908 19.1045ZM122.836 20C122.763 19.8542 122.704 19.5944 122.658 19.2207C122.07 19.8314 121.368 20.1367 120.553 20.1367C119.824 20.1367 119.224 19.9316 118.755 19.5215C118.29 19.1068 118.058 18.5827 118.058 17.9492C118.058 17.179 118.349 16.582 118.933 16.1582C119.521 15.7298 120.345 15.5156 121.407 15.5156H122.638V14.9346C122.638 14.4925 122.506 14.1416 122.241 13.8818C121.977 13.6175 121.587 13.4854 121.072 13.4854C120.621 13.4854 120.243 13.5993 119.938 13.8271C119.632 14.055 119.479 14.3307 119.479 14.6543H118.208C118.208 14.2852 118.338 13.9297 118.598 13.5879C118.862 13.2415 119.217 12.9681 119.664 12.7676C120.115 12.5671 120.61 12.4668 121.147 12.4668C122 12.4668 122.667 12.681 123.15 13.1094C123.633 13.5332 123.884 14.1188 123.902 14.8662V18.2705C123.902 18.9495 123.989 19.4896 124.162 19.8906V20H122.836ZM120.737 19.0361C121.134 19.0361 121.51 18.9336 121.865 18.7285C122.221 18.5234 122.478 18.2568 122.638 17.9287V16.4111H121.646C120.097 16.4111 119.322 16.8646 119.322 17.7715C119.322 18.168 119.454 18.4779 119.719 18.7012C119.983 18.9245 120.323 19.0361 120.737 19.0361ZM129.46 13.7383C129.269 13.7064 129.061 13.6904 128.838 13.6904C128.008 13.6904 127.446 14.0436 127.149 14.75V20H125.885V12.6035H127.115L127.136 13.458C127.55 12.7972 128.138 12.4668 128.899 12.4668C129.146 12.4668 129.332 12.4987 129.46 12.5625V13.7383ZM134.922 20C134.849 19.8542 134.79 19.5944 134.744 19.2207C134.156 19.8314 133.454 20.1367 132.639 20.1367C131.91 20.1367 131.31 19.9316 130.841 19.5215C130.376 19.1068 130.144 18.5827 130.144 17.9492C130.144 17.179 130.435 16.582 131.019 16.1582C131.606 15.7298 132.431 15.5156 133.493 15.5156H134.724V14.9346C134.724 14.4925 134.591 14.1416 134.327 13.8818C134.063 13.6175 133.673 13.4854 133.158 13.4854C132.707 13.4854 132.329 13.5993 132.023 13.8271C131.718 14.055 131.565 14.3307 131.565 14.6543H130.294C130.294 14.2852 130.424 13.9297 130.684 13.5879C130.948 13.2415 131.303 12.9681 131.75 12.7676C132.201 12.5671 132.696 12.4668 133.233 12.4668C134.086 12.4668 134.753 12.681 135.236 13.1094C135.719 13.5332 135.97 14.1188 135.988 14.8662V18.2705C135.988 18.9495 136.075 19.4896 136.248 19.8906V20H134.922ZM132.823 19.0361C133.22 19.0361 133.596 18.9336 133.951 18.7285C134.307 18.5234 134.564 18.2568 134.724 17.9287V16.4111H133.732C132.183 16.4111 131.408 16.8646 131.408 17.7715C131.408 18.168 131.54 18.4779 131.805 18.7012C132.069 18.9245 132.409 19.0361 132.823 19.0361ZM137.67 16.2402C137.67 15.0872 137.937 14.1712 138.47 13.4922C139.003 12.8086 139.709 12.4668 140.589 12.4668C141.491 12.4668 142.195 12.7858 142.701 13.4238L142.763 12.6035H143.918V19.8223C143.918 20.7793 143.633 21.5335 143.063 22.085C142.498 22.6364 141.737 22.9121 140.78 22.9121C140.247 22.9121 139.725 22.7982 139.215 22.5703C138.704 22.3424 138.315 22.0303 138.046 21.6338L138.702 20.875C139.244 21.5449 139.908 21.8799 140.691 21.8799C141.307 21.8799 141.785 21.7067 142.127 21.3604C142.473 21.014 142.646 20.5264 142.646 19.8975V19.2617C142.141 19.8451 141.45 20.1367 140.575 20.1367C139.709 20.1367 139.007 19.7881 138.47 19.0908C137.937 18.3936 137.67 17.4434 137.67 16.2402ZM138.941 16.3838C138.941 17.2178 139.112 17.874 139.454 18.3525C139.796 18.8265 140.274 19.0635 140.89 19.0635C141.687 19.0635 142.273 18.7012 142.646 17.9766V14.5996C142.259 13.8932 141.678 13.54 140.903 13.54C140.288 13.54 139.807 13.7793 139.461 14.2578C139.115 14.7363 138.941 15.445 138.941 16.3838ZM150.398 19.2686C149.906 19.8473 149.184 20.1367 148.231 20.1367C147.443 20.1367 146.841 19.9089 146.427 19.4531C146.017 18.9928 145.809 18.3138 145.805 17.416V12.6035H147.069V17.3818C147.069 18.5029 147.525 19.0635 148.437 19.0635C149.403 19.0635 150.045 18.7035 150.364 17.9834V12.6035H151.629V20H150.426L150.398 19.2686ZM158.123 20C158.05 19.8542 157.991 19.5944 157.945 19.2207C157.357 19.8314 156.656 20.1367 155.84 20.1367C155.111 20.1367 154.511 19.9316 154.042 19.5215C153.577 19.1068 153.345 18.5827 153.345 17.9492C153.345 17.179 153.636 16.582 154.22 16.1582C154.808 15.7298 155.632 15.5156 156.694 15.5156H157.925V14.9346C157.925 14.4925 157.793 14.1416 157.528 13.8818C157.264 13.6175 156.874 13.4854 156.359 13.4854C155.908 13.4854 155.53 13.5993 155.225 13.8271C154.919 14.055 154.767 14.3307 154.767 14.6543H153.495C153.495 14.2852 153.625 13.9297 153.885 13.5879C154.149 13.2415 154.505 12.9681 154.951 12.7676C155.402 12.5671 155.897 12.4668 156.435 12.4668C157.287 12.4668 157.954 12.681 158.438 13.1094C158.921 13.5332 159.171 14.1188 159.189 14.8662V18.2705C159.189 18.9495 159.276 19.4896 159.449 19.8906V20H158.123ZM156.024 19.0361C156.421 19.0361 156.797 18.9336 157.152 18.7285C157.508 18.5234 157.765 18.2568 157.925 17.9287V16.4111H156.934C155.384 16.4111 154.609 16.8646 154.609 17.7715C154.609 18.168 154.742 18.4779 155.006 18.7012C155.27 18.9245 155.61 19.0361 156.024 19.0361Z" fill="#2D314D"/>
<path d="M8.97229 28.8689C1.40469 16.7476 0 15.5035 0 11.0488C0 4.94668 4.47714 0 10 0C15.5229 0 20 4.94668 20 11.0488C20 15.5035 18.5953 16.7476 11.0277 28.8689C10.5311 29.6616 9.46885 29.6615 8.97229 28.8689ZM10 15.6524C12.3012 15.6524 14.1667 13.5913 14.1667 11.0488C14.1667 8.50623 12.3012 6.44511 10 6.44511C7.6988 6.44511 5.83333 8.50623 5.83333 11.0488C5.83333 13.5913 7.6988 15.6524 10 15.6524Z" fill="#2D314D"/>
</svg>
