<svg width="48" height="48" viewBox="0 0 48 48" fill="none" xmlns="http://www.w3.org/2000/svg">
<path d="M14.6739 30.8995L7.77287 23.9983L14.6739 17.0972C15.9316 15.8394 15.9316 13.8021 14.6739 12.5444C13.4179 11.2868 11.379 11.2868 10.1215 12.5444L0.943168 21.7218C0.339498 22.3256 0 23.1446 0 23.9983C0 24.852 0.339498 25.6709 0.943168 26.2746L10.1215 35.452C10.7502 36.0808 11.5739 36.3953 12.3977 36.3953C13.2215 36.3953 14.046 36.0808 14.6739 35.452C15.9316 34.1943 15.9316 32.157 14.6739 30.8995Z" fill="#2D314D"/>
<path d="M47.0568 21.7218L37.8787 12.5444C36.621 11.2868 34.582 11.2868 33.326 12.5444C32.0684 13.802 32.0684 15.8393 33.326 17.0972L40.2271 23.9983L33.326 30.8995C32.0684 32.157 32.0684 34.1943 33.326 35.452C33.9542 36.0808 34.7787 36.3953 35.6024 36.3953C36.4261 36.3953 37.2498 36.0808 37.8787 35.452L47.0568 26.2746C47.6604 25.6709 48.0001 24.852 48.0001 23.9983C48.0001 23.1446 47.6604 22.3256 47.0568 21.7218Z" fill="#2D314D"/>
<path d="M31.3354 5.69985C29.6951 5.03485 27.8094 5.81639 27.1373 7.46207L14.6124 38.0976C13.9396 39.7435 14.7279 41.6235 16.3738 42.2965C16.7723 42.4584 17.185 42.5371 17.5912 42.5371C18.8599 42.5371 20.0625 41.781 20.5719 40.5344L33.0968 9.89901C33.7696 8.25294 32.9814 6.37282 31.3354 5.69985Z" fill="#2D314D"/>
</svg>
