<svg width="236" height="21" viewBox="0 0 236 21" fill="none" xmlns="http://www.w3.org/2000/svg">
<path d="M36.9238 14.1045C37.375 14.1045 37.7692 13.9678 38.1064 13.6943C38.4437 13.4209 38.6305 13.0791 38.667 12.6689H39.8633C39.8405 13.0928 39.6947 13.4961 39.4258 13.8789C39.1569 14.2617 38.7969 14.5671 38.3457 14.7949C37.8991 15.0228 37.4251 15.1367 36.9238 15.1367C35.9167 15.1367 35.1146 14.8018 34.5176 14.1318C33.9251 13.4574 33.6289 12.5368 33.6289 11.3701V11.1582C33.6289 10.4382 33.7611 9.79785 34.0254 9.2373C34.2897 8.67676 34.668 8.24154 35.1602 7.93164C35.6569 7.62174 36.2425 7.4668 36.917 7.4668C37.7464 7.4668 38.4346 7.71517 38.9814 8.21191C39.5329 8.70866 39.8268 9.35352 39.8633 10.1465H38.667C38.6305 9.66797 38.4482 9.27604 38.1201 8.9707C37.7965 8.66081 37.3955 8.50586 36.917 8.50586C36.2744 8.50586 35.7754 8.73828 35.4199 9.20312C35.069 9.66341 34.8936 10.3311 34.8936 11.2061V11.4453C34.8936 12.2975 35.069 12.9538 35.4199 13.4141C35.7708 13.8743 36.2721 14.1045 36.9238 14.1045ZM40.9844 11.2402C40.9844 10.0872 41.251 9.17122 41.7842 8.49219C42.3174 7.80859 43.0238 7.4668 43.9033 7.4668C44.8057 7.4668 45.5098 7.78581 46.0156 8.42383L46.0771 7.60352H47.2324V14.8223C47.2324 15.7793 46.9476 16.5335 46.3779 17.085C45.8128 17.6364 45.0518 17.9121 44.0947 17.9121C43.5615 17.9121 43.0397 17.7982 42.5293 17.5703C42.0189 17.3424 41.6292 17.0303 41.3604 16.6338L42.0166 15.875C42.5589 16.5449 43.222 16.8799 44.0059 16.8799C44.6211 16.8799 45.0996 16.7067 45.4414 16.3604C45.7878 16.014 45.9609 15.5264 45.9609 14.8975V14.2617C45.4551 14.8451 44.7646 15.1367 43.8896 15.1367C43.0238 15.1367 42.3219 14.7881 41.7842 14.0908C41.251 13.3936 40.9844 12.4434 40.9844 11.2402ZM42.2559 11.3838C42.2559 12.2178 42.4268 12.874 42.7686 13.3525C43.1104 13.8265 43.5889 14.0635 44.2041 14.0635C45.0016 14.0635 45.5872 13.7012 45.9609 12.9766V9.59961C45.5736 8.89323 44.9925 8.54004 44.2178 8.54004C43.6025 8.54004 43.1217 8.7793 42.7754 9.25781C42.429 9.73633 42.2559 10.445 42.2559 11.3838ZM53.7129 15C53.64 14.8542 53.5807 14.5944 53.5352 14.2207C52.9473 14.8314 52.2454 15.1367 51.4297 15.1367C50.7005 15.1367 50.1012 14.9316 49.6318 14.5215C49.167 14.1068 48.9346 13.5827 48.9346 12.9492C48.9346 12.179 49.2262 11.582 49.8096 11.1582C50.3975 10.7298 51.2223 10.5156 52.2842 10.5156H53.5146V9.93457C53.5146 9.49251 53.3825 9.1416 53.1182 8.88184C52.8538 8.61751 52.4642 8.48535 51.9492 8.48535C51.498 8.48535 51.1198 8.59928 50.8145 8.82715C50.5091 9.05501 50.3564 9.33073 50.3564 9.6543H49.085C49.085 9.28516 49.2148 8.92969 49.4746 8.58789C49.7389 8.24154 50.0944 7.9681 50.541 7.76758C50.9922 7.56706 51.4867 7.4668 52.0244 7.4668C52.8766 7.4668 53.5443 7.68099 54.0273 8.10938C54.5104 8.5332 54.7611 9.11882 54.7793 9.86621V13.2705C54.7793 13.9495 54.8659 14.4896 55.0391 14.8906V15H53.7129ZM51.6143 14.0361C52.0107 14.0361 52.3867 13.9336 52.7422 13.7285C53.0977 13.5234 53.3551 13.2568 53.5146 12.9287V11.4111H52.5234C50.974 11.4111 50.1992 11.8646 50.1992 12.7715C50.1992 13.168 50.3314 13.4779 50.5957 13.7012C50.86 13.9245 51.1995 14.0361 51.6143 14.0361ZM60.3369 8.73828C60.1455 8.70638 59.9382 8.69043 59.7148 8.69043C58.8854 8.69043 58.3226 9.04362 58.0264 9.75V15H56.7617V7.60352H57.9922L58.0127 8.45801C58.4274 7.7972 59.0153 7.4668 59.7764 7.4668C60.0225 7.4668 60.2093 7.4987 60.3369 7.5625V8.73828ZM65.7988 15C65.7259 14.8542 65.6667 14.5944 65.6211 14.2207C65.0332 14.8314 64.3314 15.1367 63.5156 15.1367C62.7865 15.1367 62.1872 14.9316 61.7178 14.5215C61.2529 14.1068 61.0205 13.5827 61.0205 12.9492C61.0205 12.179 61.3122 11.582 61.8955 11.1582C62.4834 10.7298 63.3083 10.5156 64.3701 10.5156H65.6006V9.93457C65.6006 9.49251 65.4684 9.1416 65.2041 8.88184C64.9398 8.61751 64.5501 8.48535 64.0352 8.48535C63.584 8.48535 63.2057 8.59928 62.9004 8.82715C62.5951 9.05501 62.4424 9.33073 62.4424 9.6543H61.1709C61.1709 9.28516 61.3008 8.92969 61.5605 8.58789C61.8249 8.24154 62.1803 7.9681 62.627 7.76758C63.0781 7.56706 63.5726 7.4668 64.1104 7.4668C64.9626 7.4668 65.6302 7.68099 66.1133 8.10938C66.5964 8.5332 66.847 9.11882 66.8652 9.86621V13.2705C66.8652 13.9495 66.9518 14.4896 67.125 14.8906V15H65.7988ZM63.7002 14.0361C64.0967 14.0361 64.4727 13.9336 64.8281 13.7285C65.1836 13.5234 65.4411 13.2568 65.6006 12.9287V11.4111H64.6094C63.0599 11.4111 62.2852 11.8646 62.2852 12.7715C62.2852 13.168 62.4173 13.4779 62.6816 13.7012C62.946 13.9245 63.2855 14.0361 63.7002 14.0361ZM71.1582 13.1475L72.8809 7.60352H74.2344L71.2607 16.1416C70.8005 17.3721 70.069 17.9873 69.0664 17.9873L68.8271 17.9668L68.3555 17.8779V16.8525L68.6973 16.8799C69.1257 16.8799 69.4583 16.7933 69.6953 16.6201C69.9368 16.4469 70.1351 16.1302 70.29 15.6699L70.5703 14.918L67.9316 7.60352H69.3125L71.1582 13.1475ZM74.6582 14.3369C74.6582 14.1182 74.722 13.9359 74.8496 13.79C74.9818 13.6442 75.1777 13.5713 75.4375 13.5713C75.6973 13.5713 75.8932 13.6442 76.0254 13.79C76.1621 13.9359 76.2305 14.1182 76.2305 14.3369C76.2305 14.5465 76.1621 14.722 76.0254 14.8633C75.8932 15.0046 75.6973 15.0752 75.4375 15.0752C75.1777 15.0752 74.9818 15.0046 74.8496 14.8633C74.722 14.722 74.6582 14.5465 74.6582 14.3369ZM82.8887 15C82.8158 14.8542 82.7565 14.5944 82.7109 14.2207C82.123 14.8314 81.4212 15.1367 80.6055 15.1367C79.8763 15.1367 79.277 14.9316 78.8076 14.5215C78.3428 14.1068 78.1104 13.5827 78.1104 12.9492C78.1104 12.179 78.402 11.582 78.9854 11.1582C79.5732 10.7298 80.3981 10.5156 81.46 10.5156H82.6904V9.93457C82.6904 9.49251 82.5583 9.1416 82.2939 8.88184C82.0296 8.61751 81.64 8.48535 81.125 8.48535C80.6738 8.48535 80.2956 8.59928 79.9902 8.82715C79.6849 9.05501 79.5322 9.33073 79.5322 9.6543H78.2607C78.2607 9.28516 78.3906 8.92969 78.6504 8.58789C78.9147 8.24154 79.2702 7.9681 79.7168 7.76758C80.168 7.56706 80.6624 7.4668 81.2002 7.4668C82.0524 7.4668 82.7201 7.68099 83.2031 8.10938C83.6862 8.5332 83.9368 9.11882 83.9551 9.86621V13.2705C83.9551 13.9495 84.0417 14.4896 84.2148 14.8906V15H82.8887ZM80.79 14.0361C81.1865 14.0361 81.5625 13.9336 81.918 13.7285C82.2734 13.5234 82.5309 13.2568 82.6904 12.9287V11.4111H81.6992C80.1497 11.4111 79.375 11.8646 79.375 12.7715C79.375 13.168 79.5072 13.4779 79.7715 13.7012C80.0358 13.9245 80.3753 14.0361 80.79 14.0361ZM85.6367 11.2402C85.6367 10.0872 85.9033 9.17122 86.4365 8.49219C86.9697 7.80859 87.6761 7.4668 88.5557 7.4668C89.458 7.4668 90.1621 7.78581 90.668 8.42383L90.7295 7.60352H91.8848V14.8223C91.8848 15.7793 91.5999 16.5335 91.0303 17.085C90.4652 17.6364 89.7041 17.9121 88.7471 17.9121C88.2139 17.9121 87.6921 17.7982 87.1816 17.5703C86.6712 17.3424 86.2816 17.0303 86.0127 16.6338L86.6689 15.875C87.2113 16.5449 87.8743 16.8799 88.6582 16.8799C89.2734 16.8799 89.752 16.7067 90.0938 16.3604C90.4401 16.014 90.6133 15.5264 90.6133 14.8975V14.2617C90.1074 14.8451 89.417 15.1367 88.542 15.1367C87.6761 15.1367 86.9743 14.7881 86.4365 14.0908C85.9033 13.3936 85.6367 12.4434 85.6367 11.2402ZM86.9082 11.3838C86.9082 12.2178 87.0791 12.874 87.4209 13.3525C87.7627 13.8265 88.2412 14.0635 88.8564 14.0635C89.654 14.0635 90.2396 13.7012 90.6133 12.9766V9.59961C90.2259 8.89323 89.6449 8.54004 88.8701 8.54004C88.2549 8.54004 87.7741 8.7793 87.4277 9.25781C87.0814 9.73633 86.9082 10.445 86.9082 11.3838ZM98.3652 14.2686C97.873 14.8473 97.1507 15.1367 96.1982 15.1367C95.4098 15.1367 94.8083 14.9089 94.3936 14.4531C93.9834 13.9928 93.776 13.3138 93.7715 12.416V7.60352H95.0361V12.3818C95.0361 13.5029 95.4919 14.0635 96.4033 14.0635C97.3695 14.0635 98.012 13.7035 98.3311 12.9834V7.60352H99.5957V15H98.3926L98.3652 14.2686ZM102.897 15H101.633V7.60352H102.897V15ZM101.53 5.6416C101.53 5.43652 101.592 5.26335 101.715 5.12207C101.842 4.98079 102.029 4.91016 102.275 4.91016C102.521 4.91016 102.708 4.98079 102.836 5.12207C102.964 5.26335 103.027 5.43652 103.027 5.6416C103.027 5.84668 102.964 6.01758 102.836 6.1543C102.708 6.29102 102.521 6.35938 102.275 6.35938C102.029 6.35938 101.842 6.29102 101.715 6.1543C101.592 6.01758 101.53 5.84668 101.53 5.6416ZM106.302 15H105.037V4.5H106.302V15ZM112.898 15C112.826 14.8542 112.766 14.5944 112.721 14.2207C112.133 14.8314 111.431 15.1367 110.615 15.1367C109.886 15.1367 109.287 14.9316 108.817 14.5215C108.353 14.1068 108.12 13.5827 108.12 12.9492C108.12 12.179 108.412 11.582 108.995 11.1582C109.583 10.7298 110.408 10.5156 111.47 10.5156H112.7V9.93457C112.7 9.49251 112.568 9.1416 112.304 8.88184C112.039 8.61751 111.65 8.48535 111.135 8.48535C110.684 8.48535 110.305 8.59928 110 8.82715C109.695 9.05501 109.542 9.33073 109.542 9.6543H108.271C108.271 9.28516 108.4 8.92969 108.66 8.58789C108.924 8.24154 109.28 7.9681 109.727 7.76758C110.178 7.56706 110.672 7.4668 111.21 7.4668C112.062 7.4668 112.73 7.68099 113.213 8.10938C113.696 8.5332 113.947 9.11882 113.965 9.86621V13.2705C113.965 13.9495 114.051 14.4896 114.225 14.8906V15H112.898ZM110.8 14.0361C111.196 14.0361 111.572 13.9336 111.928 13.7285C112.283 13.5234 112.541 13.2568 112.7 12.9287V11.4111H111.709C110.16 11.4111 109.385 11.8646 109.385 12.7715C109.385 13.168 109.517 13.4779 109.781 13.7012C110.046 13.9245 110.385 14.0361 110.8 14.0361ZM119.522 8.73828C119.331 8.70638 119.124 8.69043 118.9 8.69043C118.071 8.69043 117.508 9.04362 117.212 9.75V15H115.947V7.60352H117.178L117.198 8.45801C117.613 7.7972 118.201 7.4668 118.962 7.4668C119.208 7.4668 119.395 7.4987 119.522 7.5625V8.73828ZM125.408 10.625C125.144 10.9395 124.827 11.1924 124.458 11.3838C124.093 11.5752 123.692 11.6709 123.255 11.6709C122.681 11.6709 122.179 11.5296 121.751 11.2471C121.327 10.9645 120.999 10.568 120.767 10.0576C120.534 9.54264 120.418 8.97526 120.418 8.35547C120.418 7.6901 120.543 7.09082 120.794 6.55762C121.049 6.02441 121.409 5.61654 121.874 5.33398C122.339 5.05143 122.881 4.91016 123.501 4.91016C124.485 4.91016 125.26 5.2793 125.825 6.01758C126.395 6.7513 126.68 7.75391 126.68 9.02539V9.39453C126.68 11.3314 126.297 12.7464 125.531 13.6396C124.766 14.5283 123.61 14.984 122.065 15.0068H121.819V13.9404H122.086C123.13 13.9222 123.932 13.651 124.492 13.127C125.053 12.5983 125.358 11.7643 125.408 10.625ZM123.46 10.625C123.884 10.625 124.273 10.4951 124.629 10.2354C124.989 9.97559 125.251 9.6543 125.415 9.27148V8.76562C125.415 7.9362 125.235 7.26172 124.875 6.74219C124.515 6.22266 124.059 5.96289 123.508 5.96289C122.952 5.96289 122.505 6.17708 122.168 6.60547C121.831 7.0293 121.662 7.58984 121.662 8.28711C121.662 8.96615 121.824 9.52669 122.147 9.96875C122.476 10.4062 122.913 10.625 123.46 10.625ZM134.849 5.75781L130.727 15H129.4L133.509 6.08594H128.122V5.04688H134.849V5.75781ZM147.338 11.5684C147.283 12.6712 147.01 13.5417 146.518 14.1797C146.025 14.8177 145.367 15.1367 144.542 15.1367C143.69 15.1367 143.143 14.7539 142.901 13.9883C142.655 14.3757 142.373 14.665 142.054 14.8564C141.739 15.0433 141.413 15.1367 141.076 15.1367C140.429 15.1367 139.939 14.8724 139.606 14.3438C139.274 13.8151 139.151 13.0837 139.237 12.1494C139.306 11.3975 139.477 10.7275 139.75 10.1396C140.028 9.5472 140.383 9.08236 140.816 8.74512C141.254 8.40788 141.712 8.23926 142.19 8.23926C142.56 8.23926 142.89 8.28939 143.182 8.38965C143.473 8.48535 143.801 8.67676 144.166 8.96387L143.811 12.751C143.724 13.8037 144.016 14.3301 144.686 14.3301C145.201 14.3301 145.618 14.0749 145.937 13.5645C146.256 13.054 146.429 12.3887 146.456 11.5684C146.543 9.79557 146.212 8.44434 145.465 7.51465C144.722 6.58496 143.59 6.12012 142.067 6.12012C141.151 6.12012 140.338 6.34798 139.627 6.80371C138.916 7.25488 138.355 7.90885 137.945 8.76562C137.535 9.6224 137.305 10.6113 137.255 11.7324C137.2 12.8626 137.337 13.8447 137.665 14.6787C137.993 15.5081 138.492 16.1416 139.162 16.5791C139.837 17.0212 140.65 17.2422 141.603 17.2422C142.013 17.2422 142.423 17.1921 142.833 17.0918C143.248 16.9915 143.592 16.8617 143.865 16.7021L144.118 17.4883C143.836 17.666 143.46 17.8118 142.99 17.9258C142.525 18.0397 142.054 18.0967 141.575 18.0967C140.436 18.0967 139.456 17.8392 138.636 17.3242C137.815 16.8138 137.2 16.0755 136.79 15.1094C136.384 14.1478 136.209 13.0221 136.264 11.7324C136.318 10.4792 136.599 9.35352 137.104 8.35547C137.61 7.35286 138.296 6.5804 139.162 6.03809C140.028 5.49121 141.006 5.21777 142.095 5.21777C143.229 5.21777 144.202 5.47298 145.014 5.9834C145.825 6.49382 146.429 7.22982 146.825 8.19141C147.222 9.15299 147.393 10.2786 147.338 11.5684ZM140.324 12.1494C140.26 12.7965 140.32 13.2933 140.502 13.6396C140.689 13.986 140.983 14.1592 141.384 14.1592C141.657 14.1592 141.919 14.043 142.17 13.8105C142.425 13.5781 142.635 13.2454 142.799 12.8125L142.806 12.751L143.12 9.3125C142.865 9.18034 142.591 9.11426 142.3 9.11426C141.767 9.11426 141.325 9.38542 140.974 9.92773C140.627 10.4701 140.411 11.2106 140.324 12.1494ZM148.691 11.2402C148.691 10.0872 148.958 9.17122 149.491 8.49219C150.024 7.80859 150.731 7.4668 151.61 7.4668C152.513 7.4668 153.217 7.78581 153.723 8.42383L153.784 7.60352H154.939V14.8223C154.939 15.7793 154.655 16.5335 154.085 17.085C153.52 17.6364 152.759 17.9121 151.802 17.9121C151.269 17.9121 150.747 17.7982 150.236 17.5703C149.726 17.3424 149.336 17.0303 149.067 16.6338L149.724 15.875C150.266 16.5449 150.929 16.8799 151.713 16.8799C152.328 16.8799 152.807 16.7067 153.148 16.3604C153.495 16.014 153.668 15.5264 153.668 14.8975V14.2617C153.162 14.8451 152.472 15.1367 151.597 15.1367C150.731 15.1367 150.029 14.7881 149.491 14.0908C148.958 13.3936 148.691 12.4434 148.691 11.2402ZM149.963 11.3838C149.963 12.2178 150.134 12.874 150.476 13.3525C150.817 13.8265 151.296 14.0635 151.911 14.0635C152.709 14.0635 153.294 13.7012 153.668 12.9766V9.59961C153.281 8.89323 152.7 8.54004 151.925 8.54004C151.31 8.54004 150.829 8.7793 150.482 9.25781C150.136 9.73633 149.963 10.445 149.963 11.3838ZM158.043 7.60352L158.077 8.42383C158.619 7.78581 159.351 7.4668 160.271 7.4668C161.306 7.4668 162.01 7.86328 162.384 8.65625C162.63 8.30078 162.949 8.01367 163.341 7.79492C163.737 7.57617 164.204 7.4668 164.742 7.4668C166.365 7.4668 167.189 8.32585 167.217 10.0439V15H165.952V10.1191C165.952 9.59049 165.831 9.19629 165.59 8.93652C165.348 8.6722 164.943 8.54004 164.373 8.54004C163.904 8.54004 163.514 8.68132 163.204 8.96387C162.894 9.24186 162.714 9.61784 162.664 10.0918V15H161.393V10.1533C161.393 9.0778 160.866 8.54004 159.813 8.54004C158.984 8.54004 158.417 8.89323 158.111 9.59961V15H156.847V7.60352H158.043ZM173.697 15C173.624 14.8542 173.565 14.5944 173.52 14.2207C172.932 14.8314 172.23 15.1367 171.414 15.1367C170.685 15.1367 170.086 14.9316 169.616 14.5215C169.151 14.1068 168.919 13.5827 168.919 12.9492C168.919 12.179 169.211 11.582 169.794 11.1582C170.382 10.7298 171.207 10.5156 172.269 10.5156H173.499V9.93457C173.499 9.49251 173.367 9.1416 173.103 8.88184C172.838 8.61751 172.449 8.48535 171.934 8.48535C171.482 8.48535 171.104 8.59928 170.799 8.82715C170.493 9.05501 170.341 9.33073 170.341 9.6543H169.069C169.069 9.28516 169.199 8.92969 169.459 8.58789C169.723 8.24154 170.079 7.9681 170.525 7.76758C170.977 7.56706 171.471 7.4668 172.009 7.4668C172.861 7.4668 173.529 7.68099 174.012 8.10938C174.495 8.5332 174.745 9.11882 174.764 9.86621V13.2705C174.764 13.9495 174.85 14.4896 175.023 14.8906V15H173.697ZM171.599 14.0361C171.995 14.0361 172.371 13.9336 172.727 13.7285C173.082 13.5234 173.34 13.2568 173.499 12.9287V11.4111H172.508C170.958 11.4111 170.184 11.8646 170.184 12.7715C170.184 13.168 170.316 13.4779 170.58 13.7012C170.844 13.9245 171.184 14.0361 171.599 14.0361ZM178.12 15H176.855V7.60352H178.12V15ZM176.753 5.6416C176.753 5.43652 176.814 5.26335 176.938 5.12207C177.065 4.98079 177.252 4.91016 177.498 4.91016C177.744 4.91016 177.931 4.98079 178.059 5.12207C178.186 5.26335 178.25 5.43652 178.25 5.6416C178.25 5.84668 178.186 6.01758 178.059 6.1543C177.931 6.29102 177.744 6.35938 177.498 6.35938C177.252 6.35938 177.065 6.29102 176.938 6.1543C176.814 6.01758 176.753 5.84668 176.753 5.6416ZM181.524 15H180.26V4.5H181.524V15ZM183.582 14.3369C183.582 14.1182 183.646 13.9359 183.773 13.79C183.906 13.6442 184.102 13.5713 184.361 13.5713C184.621 13.5713 184.817 13.6442 184.949 13.79C185.086 13.9359 185.154 14.1182 185.154 14.3369C185.154 14.5465 185.086 14.722 184.949 14.8633C184.817 15.0046 184.621 15.0752 184.361 15.0752C184.102 15.0752 183.906 15.0046 183.773 14.8633C183.646 14.722 183.582 14.5465 183.582 14.3369ZM190.213 14.1045C190.664 14.1045 191.058 13.9678 191.396 13.6943C191.733 13.4209 191.92 13.0791 191.956 12.6689H193.152C193.13 13.0928 192.984 13.4961 192.715 13.8789C192.446 14.2617 192.086 14.5671 191.635 14.7949C191.188 15.0228 190.714 15.1367 190.213 15.1367C189.206 15.1367 188.404 14.8018 187.807 14.1318C187.214 13.4574 186.918 12.5368 186.918 11.3701V11.1582C186.918 10.4382 187.05 9.79785 187.314 9.2373C187.579 8.67676 187.957 8.24154 188.449 7.93164C188.946 7.62174 189.532 7.4668 190.206 7.4668C191.035 7.4668 191.724 7.71517 192.271 8.21191C192.822 8.70866 193.116 9.35352 193.152 10.1465H191.956C191.92 9.66797 191.737 9.27604 191.409 8.9707C191.086 8.66081 190.685 8.50586 190.206 8.50586C189.563 8.50586 189.064 8.73828 188.709 9.20312C188.358 9.66341 188.183 10.3311 188.183 11.2061V11.4453C188.183 12.2975 188.358 12.9538 188.709 13.4141C189.06 13.8743 189.561 14.1045 190.213 14.1045ZM194.239 11.2334C194.239 10.5088 194.381 9.8571 194.663 9.27832C194.95 8.69954 195.347 8.25293 195.853 7.93848C196.363 7.62402 196.944 7.4668 197.596 7.4668C198.603 7.4668 199.416 7.81543 200.036 8.5127C200.66 9.20996 200.973 10.1374 200.973 11.2949V11.3838C200.973 12.1038 200.834 12.751 200.556 13.3252C200.282 13.8949 199.888 14.3392 199.373 14.6582C198.863 14.9772 198.275 15.1367 197.609 15.1367C196.607 15.1367 195.793 14.7881 195.169 14.0908C194.549 13.3936 194.239 12.4707 194.239 11.3223V11.2334ZM195.511 11.3838C195.511 12.2041 195.7 12.8626 196.078 13.3594C196.461 13.8561 196.971 14.1045 197.609 14.1045C198.252 14.1045 198.762 13.8538 199.141 13.3525C199.519 12.8467 199.708 12.1403 199.708 11.2334C199.708 10.4222 199.514 9.76595 199.127 9.26465C198.744 8.75879 198.234 8.50586 197.596 8.50586C196.971 8.50586 196.468 8.75423 196.085 9.25098C195.702 9.74772 195.511 10.4587 195.511 11.3838ZM203.748 7.60352L203.782 8.42383C204.325 7.78581 205.056 7.4668 205.977 7.4668C207.011 7.4668 207.715 7.86328 208.089 8.65625C208.335 8.30078 208.654 8.01367 209.046 7.79492C209.442 7.57617 209.91 7.4668 210.447 7.4668C212.07 7.4668 212.895 8.32585 212.922 10.0439V15H211.657V10.1191C211.657 9.59049 211.536 9.19629 211.295 8.93652C211.053 8.6722 210.648 8.54004 210.078 8.54004C209.609 8.54004 209.219 8.68132 208.909 8.96387C208.599 9.24186 208.419 9.61784 208.369 10.0918V15H207.098V10.1533C207.098 9.0778 206.571 8.54004 205.519 8.54004C204.689 8.54004 204.122 8.89323 203.816 9.59961V15H202.552V7.60352H203.748Z" fill="#2D314D"/>
<path d="M21.3267 10.6957C21.479 10.5728 21.7056 10.6877 21.7056 10.8819V18.9855C21.7056 20.0356 20.8657 20.8876 19.8306 20.8876H3.58057C2.54541 20.8876 1.70557 20.0356 1.70557 18.9855V10.8859C1.70557 10.6877 1.92822 10.5768 2.08447 10.6996C2.95947 11.3891 4.11963 12.2649 8.104 15.2012C8.92822 15.8114 10.3188 17.0953 11.7056 17.0874C13.1001 17.0993 14.5181 15.7877 15.311 15.2012C19.2954 12.2649 20.4517 11.3852 21.3267 10.6957ZM11.7056 15.8154C12.6118 15.8312 13.9165 14.6583 14.5728 14.1749C19.7563 10.3588 20.1509 10.026 21.3462 9.07493C21.5728 8.89661 21.7056 8.61923 21.7056 8.32599V7.57309C21.7056 6.52299 20.8657 5.67102 19.8306 5.67102H3.58057C2.54541 5.67102 1.70557 6.52299 1.70557 7.57309V8.32599C1.70557 8.61923 1.83838 8.89265 2.06494 9.07493C3.26025 10.022 3.65479 10.3588 8.83838 14.1749C9.49463 14.6583 10.7993 15.8312 11.7056 15.8154Z" fill="#2D314D"/>
</svg>
