<svg width="262" height="21" viewBox="0 0 262 21" fill="none" xmlns="http://www.w3.org/2000/svg">
<path d="M5.36523 13.52C5.88607 13.52 6.30924 13.3768 6.63477 13.0903C6.96029 12.8039 7.12956 12.423 7.14258 11.9478H9.78906C9.78255 12.6639 9.58724 13.3215 9.20312 13.9204C8.81901 14.5129 8.29167 14.9751 7.62109 15.3071C6.95703 15.6326 6.22135 15.7954 5.41406 15.7954C3.90365 15.7954 2.71224 15.3169 1.83984 14.3599C0.967448 13.3963 0.53125 12.0682 0.53125 10.3755V10.1899C0.53125 8.56234 0.964193 7.26351 1.83008 6.29346C2.69596 5.3234 3.88411 4.83838 5.39453 4.83838C6.71615 4.83838 7.77409 5.21598 8.56836 5.97119C9.36914 6.71989 9.77604 7.71924 9.78906 8.96924H7.14258C7.12956 8.42236 6.96029 7.97965 6.63477 7.64111C6.30924 7.29606 5.87956 7.12354 5.3457 7.12354C4.68815 7.12354 4.1901 7.36442 3.85156 7.84619C3.51953 8.32145 3.35352 9.09619 3.35352 10.1704V10.4634C3.35352 11.5506 3.51953 12.3319 3.85156 12.8071C4.18359 13.2824 4.68815 13.52 5.36523 13.52ZM10.9902 10.2388C10.9902 8.61768 11.3743 7.31234 12.1426 6.32275C12.9173 5.33317 13.959 4.83838 15.2676 4.83838C16.4264 4.83838 17.3281 5.23551 17.9727 6.02979L18.0898 5.03369H20.6484V15.2485C20.6484 16.173 20.4368 16.9771 20.0137 17.6606C19.597 18.3442 19.0078 18.8651 18.2461 19.2231C17.4844 19.5812 16.5924 19.7603 15.5703 19.7603C14.7956 19.7603 14.0404 19.604 13.3047 19.2915C12.569 18.9855 12.0124 18.5884 11.6348 18.1001L12.8848 16.3813C13.5879 17.1691 14.4408 17.563 15.4434 17.563C16.1921 17.563 16.7747 17.3612 17.1914 16.9575C17.6081 16.5604 17.8164 15.994 17.8164 15.2583V14.6919C17.1654 15.4276 16.3092 15.7954 15.248 15.7954C13.9785 15.7954 12.9499 15.3006 12.1621 14.311C11.3809 13.3149 10.9902 11.9966 10.9902 10.356V10.2388ZM13.8125 10.4438C13.8125 11.4009 14.0046 12.1528 14.3887 12.6997C14.7728 13.2401 15.3001 13.5103 15.9707 13.5103C16.8301 13.5103 17.4453 13.188 17.8164 12.5435V8.1001C17.4388 7.45557 16.8301 7.1333 15.9902 7.1333C15.3132 7.1333 14.7793 7.40999 14.3887 7.96338C14.0046 8.51676 13.8125 9.34359 13.8125 10.4438ZM28.9492 15.6001C28.819 15.3462 28.7246 15.0304 28.666 14.6528C27.9824 15.4146 27.0938 15.7954 26 15.7954C24.9648 15.7954 24.1055 15.4959 23.4219 14.897C22.7448 14.298 22.4062 13.5428 22.4062 12.6313C22.4062 11.5116 22.8197 10.6522 23.6465 10.0532C24.4798 9.45426 25.681 9.15153 27.25 9.14502H28.5488V8.53955C28.5488 8.05127 28.4219 7.66064 28.168 7.36768C27.9206 7.07471 27.5267 6.92822 26.9863 6.92822C26.5111 6.92822 26.1367 7.04215 25.8633 7.27002C25.5964 7.49788 25.4629 7.81038 25.4629 8.20752H22.6406C22.6406 7.59554 22.8294 7.02913 23.207 6.5083C23.5846 5.98747 24.1185 5.58057 24.8086 5.2876C25.4987 4.98812 26.2734 4.83838 27.1328 4.83838C28.4349 4.83838 29.4668 5.16715 30.2285 5.82471C30.9967 6.47575 31.3809 7.39372 31.3809 8.57861V13.1587C31.3874 14.1613 31.5273 14.9198 31.8008 15.4341V15.6001H28.9492ZM26.6152 13.6372C27.0319 13.6372 27.416 13.5461 27.7676 13.3638C28.1191 13.175 28.3796 12.9243 28.5488 12.6118V10.7954H27.4941C26.0814 10.7954 25.3294 11.2837 25.2383 12.2603L25.2285 12.4263C25.2285 12.7778 25.3522 13.0675 25.5996 13.2954C25.847 13.5233 26.1855 13.6372 26.6152 13.6372ZM39.4863 7.68018C39.1022 7.62809 38.7637 7.60205 38.4707 7.60205C37.403 7.60205 36.7031 7.96338 36.3711 8.68604V15.6001H33.5488V5.03369H36.2148L36.293 6.29346C36.8594 5.3234 37.6439 4.83838 38.6465 4.83838C38.959 4.83838 39.252 4.8807 39.5254 4.96533L39.4863 7.68018ZM46.6836 15.6001C46.5534 15.3462 46.459 15.0304 46.4004 14.6528C45.7168 15.4146 44.8281 15.7954 43.7344 15.7954C42.6992 15.7954 41.8398 15.4959 41.1562 14.897C40.4792 14.298 40.1406 13.5428 40.1406 12.6313C40.1406 11.5116 40.554 10.6522 41.3809 10.0532C42.2142 9.45426 43.4154 9.15153 44.9844 9.14502H46.2832V8.53955C46.2832 8.05127 46.1562 7.66064 45.9023 7.36768C45.6549 7.07471 45.2611 6.92822 44.7207 6.92822C44.2454 6.92822 43.8711 7.04215 43.5977 7.27002C43.3307 7.49788 43.1973 7.81038 43.1973 8.20752H40.375C40.375 7.59554 40.5638 7.02913 40.9414 6.5083C41.319 5.98747 41.8529 5.58057 42.543 5.2876C43.2331 4.98812 44.0078 4.83838 44.8672 4.83838C46.1693 4.83838 47.2012 5.16715 47.9629 5.82471C48.7311 6.47575 49.1152 7.39372 49.1152 8.57861V13.1587C49.1217 14.1613 49.2617 14.9198 49.5352 15.4341V15.6001H46.6836ZM44.3496 13.6372C44.7663 13.6372 45.1504 13.5461 45.502 13.3638C45.8535 13.175 46.1139 12.9243 46.2832 12.6118V10.7954H45.2285C43.8158 10.7954 43.0638 11.2837 42.9727 12.2603L42.9629 12.4263C42.9629 12.7778 43.0866 13.0675 43.334 13.2954C43.5814 13.5233 43.9199 13.6372 44.3496 13.6372ZM55.0723 11.606L57.0254 5.03369H60.0527L55.8047 17.2407L55.5703 17.7974C54.9388 19.1776 53.8971 19.8677 52.4453 19.8677C52.0352 19.8677 51.6185 19.8058 51.1953 19.6821V17.5435L51.625 17.5532C52.1589 17.5532 52.556 17.4718 52.8164 17.3091C53.0833 17.1463 53.2917 16.8761 53.4414 16.4985L53.7734 15.6294L50.0723 5.03369H53.1094L55.0723 11.606ZM59.6719 14.2134C59.6719 13.7642 59.8216 13.3996 60.1211 13.1196C60.4271 12.8397 60.8079 12.6997 61.2637 12.6997C61.7259 12.6997 62.1068 12.8397 62.4062 13.1196C62.7122 13.3996 62.8652 13.7642 62.8652 14.2134C62.8652 14.6561 62.7155 15.0174 62.416 15.2974C62.1165 15.5708 61.7324 15.7075 61.2637 15.7075C60.8014 15.7075 60.4206 15.5708 60.1211 15.2974C59.8216 15.0174 59.6719 14.6561 59.6719 14.2134ZM71.4688 15.6001C71.3385 15.3462 71.2441 15.0304 71.1855 14.6528C70.502 15.4146 69.6133 15.7954 68.5195 15.7954C67.4844 15.7954 66.625 15.4959 65.9414 14.897C65.2643 14.298 64.9258 13.5428 64.9258 12.6313C64.9258 11.5116 65.3392 10.6522 66.166 10.0532C66.9993 9.45426 68.2005 9.15153 69.7695 9.14502H71.0684V8.53955C71.0684 8.05127 70.9414 7.66064 70.6875 7.36768C70.4401 7.07471 70.0462 6.92822 69.5059 6.92822C69.0306 6.92822 68.6562 7.04215 68.3828 7.27002C68.1159 7.49788 67.9824 7.81038 67.9824 8.20752H65.1602C65.1602 7.59554 65.349 7.02913 65.7266 6.5083C66.1042 5.98747 66.638 5.58057 67.3281 5.2876C68.0182 4.98812 68.793 4.83838 69.6523 4.83838C70.9544 4.83838 71.9863 5.16715 72.748 5.82471C73.5163 6.47575 73.9004 7.39372 73.9004 8.57861V13.1587C73.9069 14.1613 74.0469 14.9198 74.3203 15.4341V15.6001H71.4688ZM69.1348 13.6372C69.5514 13.6372 69.9355 13.5461 70.2871 13.3638C70.6387 13.175 70.8991 12.9243 71.0684 12.6118V10.7954H70.0137C68.6009 10.7954 67.849 11.2837 67.7578 12.2603L67.748 12.4263C67.748 12.7778 67.8717 13.0675 68.1191 13.2954C68.3665 13.5233 68.7051 13.6372 69.1348 13.6372ZM75.6582 10.2388C75.6582 8.61768 76.0423 7.31234 76.8105 6.32275C77.5853 5.33317 78.627 4.83838 79.9355 4.83838C81.0944 4.83838 81.9961 5.23551 82.6406 6.02979L82.7578 5.03369H85.3164V15.2485C85.3164 16.173 85.1048 16.9771 84.6816 17.6606C84.265 18.3442 83.6758 18.8651 82.9141 19.2231C82.1523 19.5812 81.2604 19.7603 80.2383 19.7603C79.4635 19.7603 78.7083 19.604 77.9727 19.2915C77.237 18.9855 76.6803 18.5884 76.3027 18.1001L77.5527 16.3813C78.2559 17.1691 79.1087 17.563 80.1113 17.563C80.86 17.563 81.4427 17.3612 81.8594 16.9575C82.276 16.5604 82.4844 15.994 82.4844 15.2583V14.6919C81.8333 15.4276 80.9772 15.7954 79.916 15.7954C78.6465 15.7954 77.6178 15.3006 76.8301 14.311C76.0488 13.3149 75.6582 11.9966 75.6582 10.356V10.2388ZM78.4805 10.4438C78.4805 11.4009 78.6725 12.1528 79.0566 12.6997C79.4408 13.2401 79.9681 13.5103 80.6387 13.5103C81.498 13.5103 82.1133 13.188 82.4844 12.5435V8.1001C82.1068 7.45557 81.498 7.1333 80.6582 7.1333C79.9811 7.1333 79.4473 7.40999 79.0566 7.96338C78.6725 8.51676 78.4805 9.34359 78.4805 10.4438ZM93.8223 14.5259C93.1257 15.3722 92.1621 15.7954 90.9316 15.7954C89.7988 15.7954 88.9329 15.4699 88.334 14.8188C87.7415 14.1678 87.4388 13.214 87.4258 11.9575V5.03369H90.248V11.8599C90.248 12.9601 90.7493 13.5103 91.752 13.5103C92.709 13.5103 93.3665 13.1782 93.7246 12.5142V5.03369H96.5566V15.6001H93.9004L93.8223 14.5259ZM101.664 15.6001H98.832V5.03369H101.664V15.6001ZM98.666 2.29932C98.666 1.87614 98.806 1.52783 99.0859 1.25439C99.3724 0.980957 99.7598 0.844238 100.248 0.844238C100.73 0.844238 101.114 0.980957 101.4 1.25439C101.687 1.52783 101.83 1.87614 101.83 2.29932C101.83 2.729 101.684 3.08057 101.391 3.354C101.104 3.62744 100.723 3.76416 100.248 3.76416C99.7728 3.76416 99.3887 3.62744 99.0957 3.354C98.8092 3.08057 98.666 2.729 98.666 2.29932ZM106.977 15.6001H104.145V0.600098H106.977V15.6001ZM115.434 15.6001C115.303 15.3462 115.209 15.0304 115.15 14.6528C114.467 15.4146 113.578 15.7954 112.484 15.7954C111.449 15.7954 110.59 15.4959 109.906 14.897C109.229 14.298 108.891 13.5428 108.891 12.6313C108.891 11.5116 109.304 10.6522 110.131 10.0532C110.964 9.45426 112.165 9.15153 113.734 9.14502H115.033V8.53955C115.033 8.05127 114.906 7.66064 114.652 7.36768C114.405 7.07471 114.011 6.92822 113.471 6.92822C112.995 6.92822 112.621 7.04215 112.348 7.27002C112.081 7.49788 111.947 7.81038 111.947 8.20752H109.125C109.125 7.59554 109.314 7.02913 109.691 6.5083C110.069 5.98747 110.603 5.58057 111.293 5.2876C111.983 4.98812 112.758 4.83838 113.617 4.83838C114.919 4.83838 115.951 5.16715 116.713 5.82471C117.481 6.47575 117.865 7.39372 117.865 8.57861V13.1587C117.872 14.1613 118.012 14.9198 118.285 15.4341V15.6001H115.434ZM113.1 13.6372C113.516 13.6372 113.9 13.5461 114.252 13.3638C114.604 13.175 114.864 12.9243 115.033 12.6118V10.7954H113.979C112.566 10.7954 111.814 11.2837 111.723 12.2603L111.713 12.4263C111.713 12.7778 111.837 13.0675 112.084 13.2954C112.331 13.5233 112.67 13.6372 113.1 13.6372ZM125.971 7.68018C125.587 7.62809 125.248 7.60205 124.955 7.60205C123.887 7.60205 123.188 7.96338 122.855 8.68604V15.6001H120.033V5.03369H122.699L122.777 6.29346C123.344 5.3234 124.128 4.83838 125.131 4.83838C125.443 4.83838 125.736 4.8807 126.01 4.96533L125.971 7.68018ZM133.822 9.9165C133.087 10.6392 132.227 11.0005 131.244 11.0005C129.988 11.0005 128.982 10.5708 128.227 9.71143C127.471 8.84554 127.094 7.68018 127.094 6.21533C127.094 5.28434 127.296 4.43148 127.699 3.65674C128.109 2.87549 128.679 2.27002 129.408 1.84033C130.137 1.40413 130.958 1.18604 131.869 1.18604C132.807 1.18604 133.64 1.42041 134.369 1.88916C135.098 2.35791 135.665 3.03174 136.068 3.91064C136.472 4.78955 136.677 5.79541 136.684 6.92822V7.97314C136.684 10.3429 136.094 12.2049 134.916 13.5591C133.738 14.9132 132.068 15.6359 129.906 15.7271L129.213 15.7368V13.3833L129.838 13.3735C132.292 13.2629 133.62 12.1105 133.822 9.9165ZM131.938 8.84229C132.393 8.84229 132.784 8.7251 133.109 8.49072C133.441 8.25635 133.692 7.97314 133.861 7.64111V6.479C133.861 5.52197 133.679 4.77979 133.314 4.25244C132.95 3.7251 132.462 3.46143 131.85 3.46143C131.283 3.46143 130.818 3.72184 130.453 4.24268C130.089 4.757 129.906 5.40479 129.906 6.18604C129.906 6.96077 130.082 7.5988 130.434 8.1001C130.792 8.59489 131.293 8.84229 131.938 8.84229ZM148.373 2.96338L142.875 15.6001H139.896L145.404 3.6665H138.334V1.38135H148.373V2.96338ZM166.303 10.3657C166.231 12.0324 165.818 13.3573 165.062 14.3403C164.314 15.3169 163.305 15.8052 162.035 15.8052C161.475 15.8052 160.99 15.6847 160.58 15.4438C160.176 15.203 159.87 14.8579 159.662 14.4087C159.011 15.3201 158.161 15.7759 157.113 15.7759C156.163 15.7759 155.427 15.3755 154.906 14.5747C154.385 13.7739 154.19 12.716 154.32 11.4009C154.438 10.3267 154.708 9.37288 155.131 8.53955C155.561 7.69971 156.101 7.05518 156.752 6.60596C157.403 6.15674 158.106 5.93213 158.861 5.93213C159.792 5.93213 160.587 6.14697 161.244 6.57666L161.859 6.99658L161.361 12.6411C161.296 13.1554 161.352 13.5493 161.527 13.8228C161.71 14.0962 161.996 14.2329 162.387 14.2329C162.986 14.2329 163.487 13.8846 163.891 13.188C164.294 12.4849 164.516 11.5669 164.555 10.4341C164.665 8.16195 164.206 6.41715 163.178 5.19971C162.156 3.97575 160.639 3.36377 158.627 3.36377C157.37 3.36377 156.251 3.68278 155.268 4.3208C154.285 4.95882 153.51 5.86702 152.943 7.04541C152.377 8.21729 152.058 9.56169 151.986 11.0786C151.882 13.3833 152.344 15.1639 153.373 16.4204C154.402 17.6834 155.941 18.3149 157.992 18.3149C158.533 18.3149 159.099 18.2531 159.691 18.1294C160.284 18.0122 160.795 17.8527 161.225 17.6509L161.596 19.1548C161.199 19.4152 160.661 19.6235 159.984 19.7798C159.314 19.9425 158.637 20.0239 157.953 20.0239C156.234 20.0239 154.77 19.6756 153.559 18.979C152.348 18.2889 151.443 17.2668 150.844 15.9126C150.251 14.5649 149.994 12.9536 150.072 11.0786C150.15 9.28174 150.561 7.67041 151.303 6.24463C152.045 4.81885 153.054 3.71859 154.33 2.94385C155.613 2.1626 157.058 1.77197 158.666 1.77197C160.3 1.77197 161.706 2.12354 162.885 2.82666C164.063 3.52327 164.945 4.52262 165.531 5.82471C166.117 7.12679 166.374 8.64046 166.303 10.3657ZM156.488 11.4009C156.417 12.2603 156.492 12.9146 156.713 13.3638C156.934 13.8065 157.292 14.0278 157.787 14.0278C158.106 14.0278 158.409 13.8879 158.695 13.6079C158.982 13.328 159.219 12.9243 159.408 12.397L159.818 7.77783C159.564 7.6932 159.304 7.65088 159.037 7.65088C158.288 7.65088 157.706 7.96989 157.289 8.60791C156.879 9.24593 156.612 10.1769 156.488 11.4009ZM167.807 10.2388C167.807 8.61768 168.191 7.31234 168.959 6.32275C169.734 5.33317 170.775 4.83838 172.084 4.83838C173.243 4.83838 174.145 5.23551 174.789 6.02979L174.906 5.03369H177.465V15.2485C177.465 16.173 177.253 16.9771 176.83 17.6606C176.413 18.3442 175.824 18.8651 175.062 19.2231C174.301 19.5812 173.409 19.7603 172.387 19.7603C171.612 19.7603 170.857 19.604 170.121 19.2915C169.385 18.9855 168.829 18.5884 168.451 18.1001L169.701 16.3813C170.404 17.1691 171.257 17.563 172.26 17.563C173.008 17.563 173.591 17.3612 174.008 16.9575C174.424 16.5604 174.633 15.994 174.633 15.2583V14.6919C173.982 15.4276 173.126 15.7954 172.064 15.7954C170.795 15.7954 169.766 15.3006 168.979 14.311C168.197 13.3149 167.807 11.9966 167.807 10.356V10.2388ZM170.629 10.4438C170.629 11.4009 170.821 12.1528 171.205 12.6997C171.589 13.2401 172.117 13.5103 172.787 13.5103C173.646 13.5103 174.262 13.188 174.633 12.5435V8.1001C174.255 7.45557 173.646 7.1333 172.807 7.1333C172.13 7.1333 171.596 7.40999 171.205 7.96338C170.821 8.51676 170.629 9.34359 170.629 10.4438ZM182.289 5.03369L182.377 6.21533C183.126 5.29736 184.138 4.83838 185.414 4.83838C186.775 4.83838 187.709 5.37549 188.217 6.44971C188.959 5.37549 190.017 4.83838 191.391 4.83838C192.536 4.83838 193.389 5.17367 193.949 5.84424C194.509 6.5083 194.789 7.5109 194.789 8.85205V15.6001H191.957V8.86182C191.957 8.26286 191.84 7.82666 191.605 7.55322C191.371 7.27327 190.958 7.1333 190.365 7.1333C189.519 7.1333 188.933 7.53695 188.607 8.34424L188.617 15.6001H185.795V8.87158C185.795 8.2596 185.674 7.81689 185.434 7.54346C185.193 7.27002 184.783 7.1333 184.203 7.1333C183.402 7.1333 182.823 7.46533 182.465 8.12939V15.6001H179.643V5.03369H182.289ZM203.09 15.6001C202.96 15.3462 202.865 15.0304 202.807 14.6528C202.123 15.4146 201.234 15.7954 200.141 15.7954C199.105 15.7954 198.246 15.4959 197.562 14.897C196.885 14.298 196.547 13.5428 196.547 12.6313C196.547 11.5116 196.96 10.6522 197.787 10.0532C198.62 9.45426 199.822 9.15153 201.391 9.14502H202.689V8.53955C202.689 8.05127 202.562 7.66064 202.309 7.36768C202.061 7.07471 201.667 6.92822 201.127 6.92822C200.652 6.92822 200.277 7.04215 200.004 7.27002C199.737 7.49788 199.604 7.81038 199.604 8.20752H196.781C196.781 7.59554 196.97 7.02913 197.348 6.5083C197.725 5.98747 198.259 5.58057 198.949 5.2876C199.639 4.98812 200.414 4.83838 201.273 4.83838C202.576 4.83838 203.607 5.16715 204.369 5.82471C205.137 6.47575 205.521 7.39372 205.521 8.57861V13.1587C205.528 14.1613 205.668 14.9198 205.941 15.4341V15.6001H203.09ZM200.756 13.6372C201.173 13.6372 201.557 13.5461 201.908 13.3638C202.26 13.175 202.52 12.9243 202.689 12.6118V10.7954H201.635C200.222 10.7954 199.47 11.2837 199.379 12.2603L199.369 12.4263C199.369 12.7778 199.493 13.0675 199.74 13.2954C199.988 13.5233 200.326 13.6372 200.756 13.6372ZM210.668 15.6001H207.836V5.03369H210.668V15.6001ZM207.67 2.29932C207.67 1.87614 207.81 1.52783 208.09 1.25439C208.376 0.980957 208.764 0.844238 209.252 0.844238C209.734 0.844238 210.118 0.980957 210.404 1.25439C210.691 1.52783 210.834 1.87614 210.834 2.29932C210.834 2.729 210.688 3.08057 210.395 3.354C210.108 3.62744 209.727 3.76416 209.252 3.76416C208.777 3.76416 208.393 3.62744 208.1 3.354C207.813 3.08057 207.67 2.729 207.67 2.29932ZM215.98 15.6001H213.148V0.600098H215.98V15.6001ZM218.461 14.2134C218.461 13.7642 218.611 13.3996 218.91 13.1196C219.216 12.8397 219.597 12.6997 220.053 12.6997C220.515 12.6997 220.896 12.8397 221.195 13.1196C221.501 13.3996 221.654 13.7642 221.654 14.2134C221.654 14.6561 221.505 15.0174 221.205 15.2974C220.906 15.5708 220.521 15.7075 220.053 15.7075C219.59 15.7075 219.21 15.5708 218.91 15.2974C218.611 15.0174 218.461 14.6561 218.461 14.2134ZM228.529 13.52C229.05 13.52 229.473 13.3768 229.799 13.0903C230.124 12.8039 230.294 12.423 230.307 11.9478H232.953C232.947 12.6639 232.751 13.3215 232.367 13.9204C231.983 14.5129 231.456 14.9751 230.785 15.3071C230.121 15.6326 229.385 15.7954 228.578 15.7954C227.068 15.7954 225.876 15.3169 225.004 14.3599C224.132 13.3963 223.695 12.0682 223.695 10.3755V10.1899C223.695 8.56234 224.128 7.26351 224.994 6.29346C225.86 5.3234 227.048 4.83838 228.559 4.83838C229.88 4.83838 230.938 5.21598 231.732 5.97119C232.533 6.71989 232.94 7.71924 232.953 8.96924H230.307C230.294 8.42236 230.124 7.97965 229.799 7.64111C229.473 7.29606 229.044 7.12354 228.51 7.12354C227.852 7.12354 227.354 7.36442 227.016 7.84619C226.684 8.32145 226.518 9.09619 226.518 10.1704V10.4634C226.518 11.5506 226.684 12.3319 227.016 12.8071C227.348 13.2824 227.852 13.52 228.529 13.52ZM234.125 10.2192C234.125 9.17106 234.327 8.23682 234.73 7.4165C235.134 6.59619 235.714 5.96143 236.469 5.51221C237.23 5.06299 238.113 4.83838 239.115 4.83838C240.541 4.83838 241.703 5.27458 242.602 6.14697C243.507 7.01937 244.011 8.20426 244.115 9.70166L244.135 10.4243C244.135 12.0454 243.682 13.3475 242.777 14.3306C241.872 15.3071 240.658 15.7954 239.135 15.7954C237.611 15.7954 236.394 15.3071 235.482 14.3306C234.577 13.354 234.125 12.0259 234.125 10.3462V10.2192ZM236.947 10.4243C236.947 11.4269 237.136 12.1951 237.514 12.729C237.891 13.2563 238.432 13.52 239.135 13.52C239.818 13.52 240.352 13.2596 240.736 12.7388C241.12 12.2114 241.312 11.3716 241.312 10.2192C241.312 9.23617 241.12 8.47445 240.736 7.93408C240.352 7.39372 239.812 7.12354 239.115 7.12354C238.425 7.12354 237.891 7.39372 237.514 7.93408C237.136 8.46794 236.947 9.29801 236.947 10.4243ZM248.52 5.03369L248.607 6.21533C249.356 5.29736 250.368 4.83838 251.645 4.83838C253.005 4.83838 253.939 5.37549 254.447 6.44971C255.189 5.37549 256.247 4.83838 257.621 4.83838C258.767 4.83838 259.62 5.17367 260.18 5.84424C260.74 6.5083 261.02 7.5109 261.02 8.85205V15.6001H258.188V8.86182C258.188 8.26286 258.07 7.82666 257.836 7.55322C257.602 7.27327 257.188 7.1333 256.596 7.1333C255.749 7.1333 255.163 7.53695 254.838 8.34424L254.848 15.6001H252.025V8.87158C252.025 8.2596 251.905 7.81689 251.664 7.54346C251.423 7.27002 251.013 7.1333 250.434 7.1333C249.633 7.1333 249.053 7.46533 248.695 8.12939V15.6001H245.873V5.03369H248.52Z" fill="#FAFAFA"/>
</svg>
