<svg width="139" height="19" viewBox="0 0 139 19" fill="none" xmlns="http://www.w3.org/2000/svg">
<path d="M0.287109 9.39697C0.287109 8.04346 0.46875 6.76025 0.832031 5.54736C1.19531 4.32861 1.72852 3.2417 2.43164 2.28662C3.13477 1.32568 3.87891 0.651855 4.66406 0.265137L5.08594 1.51318C4.25977 2.14014 3.58887 3.09814 3.07324 4.38721C2.56348 5.67041 2.28516 7.14111 2.23828 8.79932L2.22949 9.55518C2.22949 11.3306 2.47852 12.9155 2.97656 14.3101C3.48047 15.6987 4.18359 16.7563 5.08594 17.4829L4.66406 18.6694C3.87891 18.2827 3.13184 17.606 2.42285 16.6392C1.71973 15.6782 1.18652 14.5942 0.823242 13.3872C0.46582 12.1743 0.287109 10.8442 0.287109 9.39697ZM11.4668 7.56006H14.8066V9.51123H11.4668V13.3169H9.39258V9.51123H6.03516V7.56006H9.39258V4.00049H11.4668V7.56006ZM17.0039 8.25439L17.6982 1.80322H24.5713V3.64893H19.4736L19.1221 6.70752C19.7139 6.36768 20.3818 6.19775 21.126 6.19775C22.3447 6.19775 23.291 6.5874 23.9648 7.3667C24.6445 8.146 24.9844 9.19482 24.9844 10.5132C24.9844 11.814 24.6094 12.8511 23.8594 13.6245C23.1094 14.3921 22.0811 14.7759 20.7744 14.7759C19.6025 14.7759 18.6299 14.4448 17.8564 13.7827C17.0889 13.1147 16.6729 12.2358 16.6084 11.146H18.6738C18.7559 11.7671 18.9785 12.2446 19.3418 12.5786C19.7051 12.9067 20.1797 13.0708 20.7656 13.0708C21.4219 13.0708 21.9316 12.8364 22.2949 12.3677C22.6641 11.8989 22.8486 11.2603 22.8486 10.4517C22.8486 9.67236 22.6465 9.05713 22.2422 8.60596C21.8379 8.14893 21.2812 7.92041 20.5723 7.92041C20.1855 7.92041 19.8574 7.97314 19.5879 8.07861C19.3184 8.17822 19.0254 8.37744 18.709 8.67627L17.0039 8.25439ZM35.0039 9.2124C35.0039 11.0522 34.6582 12.4409 33.9668 13.3784C33.2812 14.3101 32.2354 14.7759 30.8291 14.7759C29.4463 14.7759 28.4033 14.3218 27.7002 13.4136C27.0029 12.4995 26.6455 11.1489 26.6279 9.36182V7.14697C26.6279 5.30713 26.9707 3.92725 27.6562 3.00732C28.3477 2.0874 29.3994 1.62744 30.8115 1.62744C32.2119 1.62744 33.2549 2.07568 33.9404 2.97217C34.6318 3.86865 34.9863 5.21045 35.0039 6.99756V9.2124ZM32.8682 6.82178C32.8682 5.62061 32.7041 4.7417 32.376 4.18506C32.0479 3.62256 31.5264 3.34131 30.8115 3.34131C30.1143 3.34131 29.6016 3.60791 29.2734 4.14111C28.9453 4.66846 28.7725 5.49463 28.7549 6.61963V9.52002C28.7549 10.7153 28.9219 11.606 29.2559 12.1919C29.5898 12.7778 30.1143 13.0708 30.8291 13.0708C31.5146 13.0708 32.0215 12.8013 32.3496 12.2622C32.6777 11.7173 32.8506 10.8677 32.8682 9.71338V6.82178ZM37.4648 8.25439L38.1592 1.80322H45.0322V3.64893H39.9346L39.583 6.70752C40.1748 6.36768 40.8428 6.19775 41.5869 6.19775C42.8057 6.19775 43.752 6.5874 44.4258 7.3667C45.1055 8.146 45.4453 9.19482 45.4453 10.5132C45.4453 11.814 45.0703 12.8511 44.3203 13.6245C43.5703 14.3921 42.542 14.7759 41.2354 14.7759C40.0635 14.7759 39.0908 14.4448 38.3174 13.7827C37.5498 13.1147 37.1338 12.2358 37.0693 11.146H39.1348C39.2168 11.7671 39.4395 12.2446 39.8027 12.5786C40.166 12.9067 40.6406 13.0708 41.2266 13.0708C41.8828 13.0708 42.3926 12.8364 42.7559 12.3677C43.125 11.8989 43.3096 11.2603 43.3096 10.4517C43.3096 9.67236 43.1074 9.05713 42.7031 8.60596C42.2988 8.14893 41.7422 7.92041 41.0332 7.92041C40.6465 7.92041 40.3184 7.97314 40.0488 8.07861C39.7793 8.17822 39.4863 8.37744 39.1699 8.67627L37.4648 8.25439ZM51.3779 9.5376C51.3779 10.8384 51.1992 12.0952 50.8418 13.3081C50.4844 14.5151 49.9424 15.6138 49.2158 16.604C48.4893 17.6001 47.7305 18.2886 46.9395 18.6694L46.5176 17.4829C47.3965 16.8032 48.0908 15.7661 48.6006 14.3716C49.1162 12.9712 49.374 11.3745 49.374 9.58154V9.37939C49.374 7.75049 49.1514 6.26807 48.7061 4.93213C48.2607 3.59033 47.6221 2.51514 46.79 1.70654L46.5176 1.46045L46.9395 0.265137C47.6895 0.628418 48.416 1.27295 49.1191 2.19873C49.8223 3.12451 50.3613 4.16162 50.7363 5.31006C51.1113 6.45264 51.3223 7.6333 51.3691 8.85205L51.3779 9.5376ZM66.4688 2.98975L61.3535 14.6001H59.1123L64.2188 3.51709H57.6006V1.80322H66.4688V2.98975ZM76.6992 2.98975L71.584 14.6001H69.3428L74.4492 3.51709H67.8311V1.80322H76.6992V2.98975ZM78.9844 8.25439L79.6787 1.80322H86.5518V3.64893H81.4541L81.1025 6.70752C81.6943 6.36768 82.3623 6.19775 83.1064 6.19775C84.3252 6.19775 85.2715 6.5874 85.9453 7.3667C86.625 8.146 86.9648 9.19482 86.9648 10.5132C86.9648 11.814 86.5898 12.8511 85.8398 13.6245C85.0898 14.3921 84.0615 14.7759 82.7549 14.7759C81.583 14.7759 80.6104 14.4448 79.8369 13.7827C79.0693 13.1147 78.6533 12.2358 78.5889 11.146H80.6543C80.7363 11.7671 80.959 12.2446 81.3223 12.5786C81.6855 12.9067 82.1602 13.0708 82.7461 13.0708C83.4023 13.0708 83.9121 12.8364 84.2754 12.3677C84.6445 11.8989 84.8291 11.2603 84.8291 10.4517C84.8291 9.67236 84.627 9.05713 84.2227 8.60596C83.8184 8.14893 83.2617 7.92041 82.5527 7.92041C82.166 7.92041 81.8379 7.97314 81.5684 8.07861C81.2988 8.17822 81.0059 8.37744 80.6895 8.67627L78.9844 8.25439ZM95.8682 10.0386H97.459V11.7524H95.8682V14.6001H93.7324V11.7524H88.2041L88.1426 10.4517L93.6621 1.80322H95.8682V10.0386ZM90.3838 10.0386H93.7324V4.69482L93.5742 4.97607L90.3838 10.0386ZM106.934 5.17822C106.934 5.80518 106.772 6.36475 106.45 6.85693C106.128 7.34326 105.688 7.72705 105.132 8.0083C105.8 8.31885 106.312 8.74365 106.67 9.28271C107.033 9.82178 107.215 10.4312 107.215 11.1108C107.215 12.2358 106.834 13.1294 106.072 13.7915C105.311 14.4478 104.297 14.7759 103.031 14.7759C101.76 14.7759 100.74 14.4448 99.9727 13.7827C99.2109 13.1206 98.8301 12.23 98.8301 11.1108C98.8301 10.4253 99.0117 9.81006 99.375 9.26514C99.7383 8.72021 100.248 8.30127 100.904 8.0083C100.354 7.72705 99.917 7.34326 99.5947 6.85693C99.2783 6.36475 99.1201 5.80518 99.1201 5.17822C99.1201 4.08838 99.4717 3.22412 100.175 2.58545C100.878 1.94678 101.827 1.62744 103.022 1.62744C104.224 1.62744 105.176 1.94678 105.879 2.58545C106.582 3.22412 106.934 4.08838 106.934 5.17822ZM105.079 11.0054C105.079 10.3726 104.889 9.86279 104.508 9.47607C104.133 9.0835 103.635 8.88721 103.014 8.88721C102.393 8.88721 101.895 9.08057 101.52 9.46729C101.15 9.854 100.966 10.3667 100.966 11.0054C100.966 11.6323 101.147 12.1333 101.511 12.5083C101.88 12.8833 102.387 13.0708 103.031 13.0708C103.676 13.0708 104.177 12.8892 104.534 12.5259C104.897 12.1626 105.079 11.6558 105.079 11.0054ZM104.807 5.25732C104.807 4.70068 104.646 4.24365 104.323 3.88623C104.001 3.52295 103.567 3.34131 103.022 3.34131C102.478 3.34131 102.047 3.51416 101.73 3.85986C101.414 4.19971 101.256 4.66553 101.256 5.25732C101.256 5.84326 101.414 6.30908 101.73 6.65479C102.053 7.00049 102.486 7.17334 103.031 7.17334C103.576 7.17334 104.007 7.00049 104.323 6.65479C104.646 6.30908 104.807 5.84326 104.807 5.25732ZM117.621 2.98975L112.506 14.6001H110.265L115.371 3.51709H108.753V1.80322H117.621V2.98975ZM119.906 8.25439L120.601 1.80322H127.474V3.64893H122.376L122.024 6.70752C122.616 6.36768 123.284 6.19775 124.028 6.19775C125.247 6.19775 126.193 6.5874 126.867 7.3667C127.547 8.146 127.887 9.19482 127.887 10.5132C127.887 11.814 127.512 12.8511 126.762 13.6245C126.012 14.3921 124.983 14.7759 123.677 14.7759C122.505 14.7759 121.532 14.4448 120.759 13.7827C119.991 13.1147 119.575 12.2358 119.511 11.146H121.576C121.658 11.7671 121.881 12.2446 122.244 12.5786C122.607 12.9067 123.082 13.0708 123.668 13.0708C124.324 13.0708 124.834 12.8364 125.197 12.3677C125.566 11.8989 125.751 11.2603 125.751 10.4517C125.751 9.67236 125.549 9.05713 125.145 8.60596C124.74 8.14893 124.184 7.92041 123.475 7.92041C123.088 7.92041 122.76 7.97314 122.49 8.07861C122.221 8.17822 121.928 8.37744 121.611 8.67627L119.906 8.25439ZM138.082 2.98975L132.967 14.6001H130.726L135.832 3.51709H129.214V1.80322H138.082V2.98975Z" fill="#FAFAFA"/>
</svg>
