<svg width="197" height="23" viewBox="0 0 197 23" fill="none" xmlns="http://www.w3.org/2000/svg">
<path d="M36.5801 11.6611H39.3555V12.8574H36.5801V16.002H35.3086V12.8574H32.5332V11.6611H35.3086V8.75586H36.5801V11.6611ZM41.3516 12.0098L41.8574 7.04688H46.957V8.21582H42.9307L42.6299 10.9297C43.1175 10.6426 43.6712 10.499 44.291 10.499C45.1979 10.499 45.918 10.7998 46.4512 11.4014C46.9844 11.9984 47.251 12.8073 47.251 13.8281C47.251 14.8535 46.973 15.6624 46.417 16.2549C45.8656 16.8428 45.0931 17.1367 44.0996 17.1367C43.2201 17.1367 42.5023 16.8929 41.9463 16.4053C41.3903 15.9176 41.0736 15.2432 40.9961 14.3818H42.1924C42.2699 14.9515 42.4727 15.3822 42.8008 15.6738C43.1289 15.9609 43.5618 16.1045 44.0996 16.1045C44.6875 16.1045 45.1478 15.904 45.4805 15.5029C45.8177 15.1019 45.9863 14.5482 45.9863 13.8418C45.9863 13.1764 45.804 12.6432 45.4395 12.2422C45.0794 11.8366 44.5986 11.6338 43.9971 11.6338C43.4456 11.6338 43.0127 11.7546 42.6982 11.9961L42.3633 12.2695L41.3516 12.0098ZM54.873 12.7549C54.873 14.236 54.6201 15.3366 54.1143 16.0566C53.6084 16.7767 52.8177 17.1367 51.7422 17.1367C50.6803 17.1367 49.8942 16.7858 49.3838 16.084C48.8734 15.3776 48.609 14.3249 48.5908 12.9258V11.2373C48.5908 9.77441 48.8438 8.6875 49.3496 7.97656C49.8555 7.26562 50.6484 6.91016 51.7285 6.91016C52.7995 6.91016 53.5879 7.25423 54.0938 7.94238C54.5996 8.62598 54.8594 9.68327 54.873 11.1143V12.7549ZM53.6084 11.0254C53.6084 9.95443 53.458 9.17513 53.1572 8.6875C52.8564 8.19531 52.3802 7.94922 51.7285 7.94922C51.0814 7.94922 50.6097 8.19303 50.3135 8.68066C50.0173 9.16829 49.8646 9.91797 49.8555 10.9297V12.9531C49.8555 14.0286 50.0104 14.8239 50.3203 15.3389C50.6348 15.8493 51.1087 16.1045 51.7422 16.1045C52.3665 16.1045 52.8291 15.863 53.1299 15.3799C53.4352 14.8968 53.5947 14.1357 53.6084 13.0967V11.0254ZM57.0742 12.0098L57.5801 7.04688H62.6797V8.21582H58.6533L58.3525 10.9297C58.8402 10.6426 59.3939 10.499 60.0137 10.499C60.9206 10.499 61.6406 10.7998 62.1738 11.4014C62.707 11.9984 62.9736 12.8073 62.9736 13.8281C62.9736 14.8535 62.6956 15.6624 62.1396 16.2549C61.5882 16.8428 60.8158 17.1367 59.8223 17.1367C58.9427 17.1367 58.2249 16.8929 57.6689 16.4053C57.113 15.9176 56.7962 15.2432 56.7188 14.3818H57.915C57.9925 14.9515 58.1953 15.3822 58.5234 15.6738C58.8516 15.9609 59.2845 16.1045 59.8223 16.1045C60.4102 16.1045 60.8704 15.904 61.2031 15.5029C61.5404 15.1019 61.709 14.5482 61.709 13.8418C61.709 13.1764 61.5267 12.6432 61.1621 12.2422C60.8021 11.8366 60.3213 11.6338 59.7197 11.6338C59.1683 11.6338 58.7354 11.7546 58.4209 11.9961L58.0859 12.2695L57.0742 12.0098ZM74.2529 7.75781L70.1309 17H68.8047L72.9131 8.08594H67.5264V7.04688H74.2529V7.75781ZM82.1143 7.75781L77.9922 17H76.666L80.7744 8.08594H75.3877V7.04688H82.1143V7.75781ZM84.1309 12.0098L84.6367 7.04688H89.7363V8.21582H85.71L85.4092 10.9297C85.8968 10.6426 86.4505 10.499 87.0703 10.499C87.9772 10.499 88.6973 10.7998 89.2305 11.4014C89.7637 11.9984 90.0303 12.8073 90.0303 13.8281C90.0303 14.8535 89.7523 15.6624 89.1963 16.2549C88.6449 16.8428 87.8724 17.1367 86.8789 17.1367C85.9993 17.1367 85.2816 16.8929 84.7256 16.4053C84.1696 15.9176 83.8529 15.2432 83.7754 14.3818H84.9717C85.0492 14.9515 85.252 15.3822 85.5801 15.6738C85.9082 15.9609 86.3411 16.1045 86.8789 16.1045C87.4668 16.1045 87.9271 15.904 88.2598 15.5029C88.597 15.1019 88.7656 14.5482 88.7656 13.8418C88.7656 13.1764 88.5833 12.6432 88.2188 12.2422C87.8587 11.8366 87.3779 11.6338 86.7764 11.6338C86.2249 11.6338 85.792 11.7546 85.4775 11.9961L85.1426 12.2695L84.1309 12.0098ZM96.75 13.6572H98.1309V14.6895H96.75V17H95.4785V14.6895H90.9463V13.9443L95.4033 7.04688H96.75V13.6572ZM92.3818 13.6572H95.4785V8.77637L95.3281 9.0498L92.3818 13.6572ZM105.309 9.64453C105.309 10.1413 105.176 10.5833 104.912 10.9707C104.652 11.3581 104.299 11.6611 103.853 11.8799C104.372 12.1032 104.782 12.429 105.083 12.8574C105.388 13.2858 105.541 13.7712 105.541 14.3135C105.541 15.1748 105.249 15.8607 104.666 16.3711C104.087 16.8815 103.324 17.1367 102.376 17.1367C101.419 17.1367 100.651 16.8815 100.072 16.3711C99.498 15.8561 99.2109 15.1702 99.2109 14.3135C99.2109 13.7757 99.3568 13.2904 99.6484 12.8574C99.9447 12.4245 100.353 12.0964 100.872 11.873C100.43 11.6543 100.081 11.3512 99.8262 10.9639C99.571 10.5765 99.4434 10.1367 99.4434 9.64453C99.4434 8.80599 99.7122 8.14062 100.25 7.64844C100.788 7.15625 101.496 6.91016 102.376 6.91016C103.251 6.91016 103.957 7.15625 104.495 7.64844C105.037 8.14062 105.309 8.80599 105.309 9.64453ZM104.276 14.2861C104.276 13.7301 104.099 13.2767 103.743 12.9258C103.392 12.5749 102.932 12.3994 102.362 12.3994C101.793 12.3994 101.335 12.5726 100.988 12.9189C100.646 13.2653 100.476 13.721 100.476 14.2861C100.476 14.8512 100.642 15.2956 100.975 15.6191C101.312 15.9427 101.779 16.1045 102.376 16.1045C102.968 16.1045 103.433 15.9427 103.771 15.6191C104.108 15.291 104.276 14.8467 104.276 14.2861ZM102.376 7.94922C101.879 7.94922 101.476 8.10417 101.166 8.41406C100.861 8.7194 100.708 9.13639 100.708 9.66504C100.708 10.1709 100.858 10.5811 101.159 10.8955C101.465 11.2054 101.87 11.3604 102.376 11.3604C102.882 11.3604 103.285 11.2054 103.586 10.8955C103.891 10.5811 104.044 10.1709 104.044 9.66504C104.044 9.15918 103.887 8.74674 103.572 8.42773C103.258 8.10872 102.859 7.94922 102.376 7.94922ZM113.56 7.75781L109.438 17H108.111L112.22 8.08594H106.833V7.04688H113.56V7.75781ZM115.576 12.0098L116.082 7.04688H121.182V8.21582H117.155L116.854 10.9297C117.342 10.6426 117.896 10.499 118.516 10.499C119.423 10.499 120.143 10.7998 120.676 11.4014C121.209 11.9984 121.476 12.8073 121.476 13.8281C121.476 14.8535 121.198 15.6624 120.642 16.2549C120.09 16.8428 119.318 17.1367 118.324 17.1367C117.445 17.1367 116.727 16.8929 116.171 16.4053C115.615 15.9176 115.298 15.2432 115.221 14.3818H116.417C116.494 14.9515 116.697 15.3822 117.025 15.6738C117.354 15.9609 117.786 16.1045 118.324 16.1045C118.912 16.1045 119.372 15.904 119.705 15.5029C120.042 15.1019 120.211 14.5482 120.211 13.8418C120.211 13.1764 120.029 12.6432 119.664 12.2422C119.304 11.8366 118.823 11.6338 118.222 11.6338C117.67 11.6338 117.237 11.7546 116.923 11.9961L116.588 12.2695L115.576 12.0098ZM129.282 7.75781L125.16 17H123.834L127.942 8.08594H122.556V7.04688H129.282V7.75781Z" fill="#2D314D"/>
<g clip-path="url(#clip0)">
<path d="M19.4293 16.1705L15.0543 14.0252C14.8674 13.9341 14.6597 13.9149 14.4624 13.9705C14.2652 14.0261 14.089 14.1535 13.9605 14.3336L12.023 17.042C8.98232 15.4017 6.53524 12.6019 5.10156 9.12283L7.46875 6.90605C7.62644 6.75931 7.73804 6.55779 7.78668 6.33199C7.83531 6.10619 7.81832 5.8684 7.73828 5.65464L5.86328 0.649008C5.77543 0.418574 5.62007 0.230432 5.42396 0.117025C5.22786 0.00361729 5.00332 -0.0279475 4.78906 0.0277731L0.726562 1.10041C0.519988 1.15499 0.335682 1.28807 0.203725 1.47792C0.0717677 1.66778 -4.75863e-05 1.90321 2.36571e-08 2.14578C2.36571e-08 13.6096 8.12109 22.8834 18.125 22.8834C18.3371 22.8836 18.5429 22.8014 18.709 22.6504C18.875 22.4995 18.9913 22.2885 19.0391 22.0521L19.9766 17.404C20.0249 17.1577 19.9968 16.8997 19.8969 16.6746C19.797 16.4495 19.6317 16.2712 19.4293 16.1705V16.1705Z" fill="#2D314D"/>
</g>
<defs>
<clipPath id="clip0">
<rect width="20" height="22.8829" fill="white"/>
</clipPath>
</defs>
</svg>
